<mxfile host="app.diagrams.net" agent="Mozilla/5.0 (X11; Linux x86_64) AppleWebKit/537.36 (KHTML, like Gecko) Chrome/130.0.0.0 Safari/537.36" version="24.7.6">
  <diagram name="PÃ¡gina-1" id="lohABYUM-T3PVT3_Ty2R">
    <mxGraphModel dx="5185" dy="2880" grid="0" gridSize="10" guides="1" tooltips="1" connect="1" arrows="1" fold="1" page="0" pageScale="1" pageWidth="827" pageHeight="1169" math="0" shadow="0">
      <root>
        <mxCell id="0" />
        <mxCell id="1" parent="0" />
        <mxCell id="v2Jn4lbNKc6R1VwB_rYv-1" value="DevOpsTask" style="swimlane;fontStyle=1;align=center;verticalAlign=top;childLayout=stackLayout;horizontal=1;startSize=24.14814814814815;horizontalStack=0;resizeParent=1;resizeParentMax=0;resizeLast=0;collapsible=0;marginBottom=0;" vertex="1" parent="1">
          <mxGeometry x="1047" y="20" width="220" height="324.14814814814815" as="geometry" />
        </mxCell>
        <mxCell id="v2Jn4lbNKc6R1VwB_rYv-2" value="-id: string" style="text;strokeColor=none;fillColor=none;align=left;verticalAlign=top;spacingLeft=4;spacingRight=4;overflow=hidden;rotatable=0;points=[[0,0.5],[1,0.5]];portConstraint=eastwest;" vertex="1" parent="v2Jn4lbNKc6R1VwB_rYv-1">
          <mxGeometry y="24.14814814814815" width="220" height="24" as="geometry" />
        </mxCell>
        <mxCell id="v2Jn4lbNKc6R1VwB_rYv-3" value="-name: string" style="text;strokeColor=none;fillColor=none;align=left;verticalAlign=top;spacingLeft=4;spacingRight=4;overflow=hidden;rotatable=0;points=[[0,0.5],[1,0.5]];portConstraint=eastwest;" vertex="1" parent="v2Jn4lbNKc6R1VwB_rYv-1">
          <mxGeometry y="48.14814814814815" width="220" height="24" as="geometry" />
        </mxCell>
        <mxCell id="v2Jn4lbNKc6R1VwB_rYv-4" value="-description: string" style="text;strokeColor=none;fillColor=none;align=left;verticalAlign=top;spacingLeft=4;spacingRight=4;overflow=hidden;rotatable=0;points=[[0,0.5],[1,0.5]];portConstraint=eastwest;" vertex="1" parent="v2Jn4lbNKc6R1VwB_rYv-1">
          <mxGeometry y="72.14814814814815" width="220" height="24" as="geometry" />
        </mxCell>
        <mxCell id="v2Jn4lbNKc6R1VwB_rYv-5" value="-createdAt: time.Time" style="text;strokeColor=none;fillColor=none;align=left;verticalAlign=top;spacingLeft=4;spacingRight=4;overflow=hidden;rotatable=0;points=[[0,0.5],[1,0.5]];portConstraint=eastwest;" vertex="1" parent="v2Jn4lbNKc6R1VwB_rYv-1">
          <mxGeometry y="96.14814814814815" width="220" height="24" as="geometry" />
        </mxCell>
        <mxCell id="v2Jn4lbNKc6R1VwB_rYv-6" value="-updatedAt: time.Time" style="text;strokeColor=none;fillColor=none;align=left;verticalAlign=top;spacingLeft=4;spacingRight=4;overflow=hidden;rotatable=0;points=[[0,0.5],[1,0.5]];portConstraint=eastwest;" vertex="1" parent="v2Jn4lbNKc6R1VwB_rYv-1">
          <mxGeometry y="120.14814814814815" width="220" height="24" as="geometry" />
        </mxCell>
        <mxCell id="v2Jn4lbNKc6R1VwB_rYv-7" value="-config: TaskConfig" style="text;strokeColor=none;fillColor=none;align=left;verticalAlign=top;spacingLeft=4;spacingRight=4;overflow=hidden;rotatable=0;points=[[0,0.5],[1,0.5]];portConstraint=eastwest;" vertex="1" parent="v2Jn4lbNKc6R1VwB_rYv-1">
          <mxGeometry y="144.14814814814815" width="220" height="24" as="geometry" />
        </mxCell>
        <mxCell id="v2Jn4lbNKc6R1VwB_rYv-8" value="-executions: TaskExecution[]" style="text;strokeColor=none;fillColor=none;align=left;verticalAlign=top;spacingLeft=4;spacingRight=4;overflow=hidden;rotatable=0;points=[[0,0.5],[1,0.5]];portConstraint=eastwest;" vertex="1" parent="v2Jn4lbNKc6R1VwB_rYv-1">
          <mxGeometry y="168.14814814814815" width="220" height="24" as="geometry" />
        </mxCell>
        <mxCell id="v2Jn4lbNKc6R1VwB_rYv-9" value="-domain: Domain" style="text;strokeColor=none;fillColor=none;align=left;verticalAlign=top;spacingLeft=4;spacingRight=4;overflow=hidden;rotatable=0;points=[[0,0.5],[1,0.5]];portConstraint=eastwest;" vertex="1" parent="v2Jn4lbNKc6R1VwB_rYv-1">
          <mxGeometry y="192.14814814814815" width="220" height="24" as="geometry" />
        </mxCell>
        <mxCell id="v2Jn4lbNKc6R1VwB_rYv-10" value="-taskType: TaskType" style="text;strokeColor=none;fillColor=none;align=left;verticalAlign=top;spacingLeft=4;spacingRight=4;overflow=hidden;rotatable=0;points=[[0,0.5],[1,0.5]];portConstraint=eastwest;" vertex="1" parent="v2Jn4lbNKc6R1VwB_rYv-1">
          <mxGeometry y="216.14814814814815" width="220" height="24" as="geometry" />
        </mxCell>
        <mxCell id="v2Jn4lbNKc6R1VwB_rYv-11" value="-approvals: Approval[]" style="text;strokeColor=none;fillColor=none;align=left;verticalAlign=top;spacingLeft=4;spacingRight=4;overflow=hidden;rotatable=0;points=[[0,0.5],[1,0.5]];portConstraint=eastwest;" vertex="1" parent="v2Jn4lbNKc6R1VwB_rYv-1">
          <mxGeometry y="240.14814814814815" width="220" height="24" as="geometry" />
        </mxCell>
        <mxCell id="v2Jn4lbNKc6R1VwB_rYv-12" value="-trigger: Trigger" style="text;strokeColor=none;fillColor=none;align=left;verticalAlign=top;spacingLeft=4;spacingRight=4;overflow=hidden;rotatable=0;points=[[0,0.5],[1,0.5]];portConstraint=eastwest;" vertex="1" parent="v2Jn4lbNKc6R1VwB_rYv-1">
          <mxGeometry y="264.14814814814815" width="220" height="24" as="geometry" />
        </mxCell>
        <mxCell id="v2Jn4lbNKc6R1VwB_rYv-13" value="-schedule: Schedule" style="text;strokeColor=none;fillColor=none;align=left;verticalAlign=top;spacingLeft=4;spacingRight=4;overflow=hidden;rotatable=0;points=[[0,0.5],[1,0.5]];portConstraint=eastwest;" vertex="1" parent="v2Jn4lbNKc6R1VwB_rYv-1">
          <mxGeometry y="288.14814814814815" width="220" height="24" as="geometry" />
        </mxCell>
        <mxCell id="v2Jn4lbNKc6R1VwB_rYv-14" style="line;strokeWidth=1;fillColor=none;align=left;verticalAlign=middle;spacingTop=-1;spacingLeft=3;spacingRight=3;rotatable=0;labelPosition=right;points=[];portConstraint=eastwest;strokeColor=inherit;" vertex="1" parent="v2Jn4lbNKc6R1VwB_rYv-1">
          <mxGeometry y="312.14814814814815" width="220" height="12" as="geometry" />
        </mxCell>
        <mxCell id="v2Jn4lbNKc6R1VwB_rYv-15" value="&lt;&lt;enumeration&gt;&gt;&#xa;TaskStatus" style="swimlane;fontStyle=1;align=center;verticalAlign=top;childLayout=stackLayout;horizontal=1;startSize=40.285714285714285;horizontalStack=0;resizeParent=1;resizeParentMax=0;resizeLast=0;collapsible=0;marginBottom=0;" vertex="1" parent="1">
          <mxGeometry x="572" y="650" width="123" height="188.28571428571428" as="geometry" />
        </mxCell>
        <mxCell id="v2Jn4lbNKc6R1VwB_rYv-16" value="PENDING" style="text;strokeColor=none;fillColor=none;align=left;verticalAlign=top;spacingLeft=4;spacingRight=4;overflow=hidden;rotatable=0;points=[[0,0.5],[1,0.5]];portConstraint=eastwest;" vertex="1" parent="v2Jn4lbNKc6R1VwB_rYv-15">
          <mxGeometry y="40.285714285714285" width="123" height="27" as="geometry" />
        </mxCell>
        <mxCell id="v2Jn4lbNKc6R1VwB_rYv-17" value="RUNNING" style="text;strokeColor=none;fillColor=none;align=left;verticalAlign=top;spacingLeft=4;spacingRight=4;overflow=hidden;rotatable=0;points=[[0,0.5],[1,0.5]];portConstraint=eastwest;" vertex="1" parent="v2Jn4lbNKc6R1VwB_rYv-15">
          <mxGeometry y="67.28571428571428" width="123" height="27" as="geometry" />
        </mxCell>
        <mxCell id="v2Jn4lbNKc6R1VwB_rYv-18" value="SUCCEEDED" style="text;strokeColor=none;fillColor=none;align=left;verticalAlign=top;spacingLeft=4;spacingRight=4;overflow=hidden;rotatable=0;points=[[0,0.5],[1,0.5]];portConstraint=eastwest;" vertex="1" parent="v2Jn4lbNKc6R1VwB_rYv-15">
          <mxGeometry y="94.28571428571428" width="123" height="27" as="geometry" />
        </mxCell>
        <mxCell id="v2Jn4lbNKc6R1VwB_rYv-19" value="FAILED" style="text;strokeColor=none;fillColor=none;align=left;verticalAlign=top;spacingLeft=4;spacingRight=4;overflow=hidden;rotatable=0;points=[[0,0.5],[1,0.5]];portConstraint=eastwest;" vertex="1" parent="v2Jn4lbNKc6R1VwB_rYv-15">
          <mxGeometry y="121.28571428571428" width="123" height="27" as="geometry" />
        </mxCell>
        <mxCell id="v2Jn4lbNKc6R1VwB_rYv-20" value="CANCELED" style="text;strokeColor=none;fillColor=none;align=left;verticalAlign=top;spacingLeft=4;spacingRight=4;overflow=hidden;rotatable=0;points=[[0,0.5],[1,0.5]];portConstraint=eastwest;" vertex="1" parent="v2Jn4lbNKc6R1VwB_rYv-15">
          <mxGeometry y="148.28571428571428" width="123" height="27" as="geometry" />
        </mxCell>
        <mxCell id="v2Jn4lbNKc6R1VwB_rYv-21" style="line;strokeWidth=1;fillColor=none;align=left;verticalAlign=middle;spacingTop=-1;spacingLeft=3;spacingRight=3;rotatable=0;labelPosition=right;points=[];portConstraint=eastwest;strokeColor=inherit;" vertex="1" parent="v2Jn4lbNKc6R1VwB_rYv-15">
          <mxGeometry y="175.28571428571428" width="123" height="13" as="geometry" />
        </mxCell>
        <mxCell id="v2Jn4lbNKc6R1VwB_rYv-22" value="&lt;&lt;interface&gt;&gt;&#xa;TaskConfig" style="swimlane;fontStyle=1;align=center;verticalAlign=top;childLayout=stackLayout;horizontal=1;startSize=48;horizontalStack=0;resizeParent=1;resizeParentMax=0;resizeLast=0;collapsible=0;marginBottom=0;" vertex="1" parent="1">
          <mxGeometry x="216" y="450" width="281" height="88" as="geometry" />
        </mxCell>
        <mxCell id="v2Jn4lbNKc6R1VwB_rYv-23" style="line;strokeWidth=1;fillColor=none;align=left;verticalAlign=middle;spacingTop=-1;spacingLeft=3;spacingRight=3;rotatable=0;labelPosition=right;points=[];portConstraint=eastwest;strokeColor=inherit;" vertex="1" parent="v2Jn4lbNKc6R1VwB_rYv-22">
          <mxGeometry y="48" width="281" height="8" as="geometry" />
        </mxCell>
        <mxCell id="v2Jn4lbNKc6R1VwB_rYv-24" value="+GetConfig() : : map[string]interface" style="text;strokeColor=none;fillColor=none;align=left;verticalAlign=top;spacingLeft=4;spacingRight=4;overflow=hidden;rotatable=0;points=[[0,0.5],[1,0.5]];portConstraint=eastwest;" vertex="1" parent="v2Jn4lbNKc6R1VwB_rYv-22">
          <mxGeometry y="56" width="281" height="32" as="geometry" />
        </mxCell>
        <mxCell id="v2Jn4lbNKc6R1VwB_rYv-25" value="TaskExecution" style="swimlane;fontStyle=1;align=center;verticalAlign=top;childLayout=stackLayout;horizontal=1;startSize=25.066666666666666;horizontalStack=0;resizeParent=1;resizeParentMax=0;resizeLast=0;collapsible=0;marginBottom=0;" vertex="1" parent="1">
          <mxGeometry x="547" y="404" width="173" height="188.06666666666666" as="geometry" />
        </mxCell>
        <mxCell id="v2Jn4lbNKc6R1VwB_rYv-26" value="-id: string" style="text;strokeColor=none;fillColor=none;align=left;verticalAlign=top;spacingLeft=4;spacingRight=4;overflow=hidden;rotatable=0;points=[[0,0.5],[1,0.5]];portConstraint=eastwest;" vertex="1" parent="v2Jn4lbNKc6R1VwB_rYv-25">
          <mxGeometry y="25.066666666666666" width="173" height="25" as="geometry" />
        </mxCell>
        <mxCell id="v2Jn4lbNKc6R1VwB_rYv-27" value="-startedAt: time.Time" style="text;strokeColor=none;fillColor=none;align=left;verticalAlign=top;spacingLeft=4;spacingRight=4;overflow=hidden;rotatable=0;points=[[0,0.5],[1,0.5]];portConstraint=eastwest;" vertex="1" parent="v2Jn4lbNKc6R1VwB_rYv-25">
          <mxGeometry y="50.06666666666666" width="173" height="25" as="geometry" />
        </mxCell>
        <mxCell id="v2Jn4lbNKc6R1VwB_rYv-28" value="-endedAt: time.Time" style="text;strokeColor=none;fillColor=none;align=left;verticalAlign=top;spacingLeft=4;spacingRight=4;overflow=hidden;rotatable=0;points=[[0,0.5],[1,0.5]];portConstraint=eastwest;" vertex="1" parent="v2Jn4lbNKc6R1VwB_rYv-25">
          <mxGeometry y="75.06666666666666" width="173" height="25" as="geometry" />
        </mxCell>
        <mxCell id="v2Jn4lbNKc6R1VwB_rYv-29" value="-status: TaskStatus" style="text;strokeColor=none;fillColor=none;align=left;verticalAlign=top;spacingLeft=4;spacingRight=4;overflow=hidden;rotatable=0;points=[[0,0.5],[1,0.5]];portConstraint=eastwest;" vertex="1" parent="v2Jn4lbNKc6R1VwB_rYv-25">
          <mxGeometry y="100.06666666666666" width="173" height="25" as="geometry" />
        </mxCell>
        <mxCell id="v2Jn4lbNKc6R1VwB_rYv-30" value="-output: string" style="text;strokeColor=none;fillColor=none;align=left;verticalAlign=top;spacingLeft=4;spacingRight=4;overflow=hidden;rotatable=0;points=[[0,0.5],[1,0.5]];portConstraint=eastwest;" vertex="1" parent="v2Jn4lbNKc6R1VwB_rYv-25">
          <mxGeometry y="125.06666666666666" width="173" height="25" as="geometry" />
        </mxCell>
        <mxCell id="v2Jn4lbNKc6R1VwB_rYv-31" value="-error: string" style="text;strokeColor=none;fillColor=none;align=left;verticalAlign=top;spacingLeft=4;spacingRight=4;overflow=hidden;rotatable=0;points=[[0,0.5],[1,0.5]];portConstraint=eastwest;" vertex="1" parent="v2Jn4lbNKc6R1VwB_rYv-25">
          <mxGeometry y="150.06666666666666" width="173" height="25" as="geometry" />
        </mxCell>
        <mxCell id="v2Jn4lbNKc6R1VwB_rYv-32" style="line;strokeWidth=1;fillColor=none;align=left;verticalAlign=middle;spacingTop=-1;spacingLeft=3;spacingRight=3;rotatable=0;labelPosition=right;points=[];portConstraint=eastwest;strokeColor=inherit;" vertex="1" parent="v2Jn4lbNKc6R1VwB_rYv-25">
          <mxGeometry y="175.06666666666666" width="173" height="13" as="geometry" />
        </mxCell>
        <mxCell id="v2Jn4lbNKc6R1VwB_rYv-33" value="TaskEvent" style="swimlane;fontStyle=1;align=center;verticalAlign=top;childLayout=stackLayout;horizontal=1;startSize=25.818181818181817;horizontalStack=0;resizeParent=1;resizeParentMax=0;resizeLast=0;collapsible=0;marginBottom=0;" vertex="1" parent="1">
          <mxGeometry x="20" y="112" width="167" height="142.8181818181818" as="geometry" />
        </mxCell>
        <mxCell id="v2Jn4lbNKc6R1VwB_rYv-34" value="-type: TaskEventType" style="text;strokeColor=none;fillColor=none;align=left;verticalAlign=top;spacingLeft=4;spacingRight=4;overflow=hidden;rotatable=0;points=[[0,0.5],[1,0.5]];portConstraint=eastwest;" vertex="1" parent="v2Jn4lbNKc6R1VwB_rYv-33">
          <mxGeometry y="25.818181818181817" width="167" height="26" as="geometry" />
        </mxCell>
        <mxCell id="v2Jn4lbNKc6R1VwB_rYv-35" value="-payload: string" style="text;strokeColor=none;fillColor=none;align=left;verticalAlign=top;spacingLeft=4;spacingRight=4;overflow=hidden;rotatable=0;points=[[0,0.5],[1,0.5]];portConstraint=eastwest;" vertex="1" parent="v2Jn4lbNKc6R1VwB_rYv-33">
          <mxGeometry y="51.81818181818181" width="167" height="26" as="geometry" />
        </mxCell>
        <mxCell id="v2Jn4lbNKc6R1VwB_rYv-36" value="-taskID: string" style="text;strokeColor=none;fillColor=none;align=left;verticalAlign=top;spacingLeft=4;spacingRight=4;overflow=hidden;rotatable=0;points=[[0,0.5],[1,0.5]];portConstraint=eastwest;" vertex="1" parent="v2Jn4lbNKc6R1VwB_rYv-33">
          <mxGeometry y="77.81818181818181" width="167" height="26" as="geometry" />
        </mxCell>
        <mxCell id="v2Jn4lbNKc6R1VwB_rYv-37" value="-time: time.Time" style="text;strokeColor=none;fillColor=none;align=left;verticalAlign=top;spacingLeft=4;spacingRight=4;overflow=hidden;rotatable=0;points=[[0,0.5],[1,0.5]];portConstraint=eastwest;" vertex="1" parent="v2Jn4lbNKc6R1VwB_rYv-33">
          <mxGeometry y="103.81818181818181" width="167" height="26" as="geometry" />
        </mxCell>
        <mxCell id="v2Jn4lbNKc6R1VwB_rYv-38" style="line;strokeWidth=1;fillColor=none;align=left;verticalAlign=middle;spacingTop=-1;spacingLeft=3;spacingRight=3;rotatable=0;labelPosition=right;points=[];portConstraint=eastwest;strokeColor=inherit;" vertex="1" parent="v2Jn4lbNKc6R1VwB_rYv-33">
          <mxGeometry y="129.8181818181818" width="167" height="13" as="geometry" />
        </mxCell>
        <mxCell id="v2Jn4lbNKc6R1VwB_rYv-39" value="&lt;&lt;enumeration&gt;&gt;&#xa;TaskEventType" style="swimlane;fontStyle=1;align=center;verticalAlign=top;childLayout=stackLayout;horizontal=1;startSize=40.285714285714285;horizontalStack=0;resizeParent=1;resizeParentMax=0;resizeLast=0;collapsible=0;marginBottom=0;" vertex="1" parent="1">
          <mxGeometry x="41" y="404" width="125" height="188.28571428571428" as="geometry" />
        </mxCell>
        <mxCell id="v2Jn4lbNKc6R1VwB_rYv-40" value="STARTED" style="text;strokeColor=none;fillColor=none;align=left;verticalAlign=top;spacingLeft=4;spacingRight=4;overflow=hidden;rotatable=0;points=[[0,0.5],[1,0.5]];portConstraint=eastwest;" vertex="1" parent="v2Jn4lbNKc6R1VwB_rYv-39">
          <mxGeometry y="40.285714285714285" width="125" height="27" as="geometry" />
        </mxCell>
        <mxCell id="v2Jn4lbNKc6R1VwB_rYv-41" value="OUTPUT" style="text;strokeColor=none;fillColor=none;align=left;verticalAlign=top;spacingLeft=4;spacingRight=4;overflow=hidden;rotatable=0;points=[[0,0.5],[1,0.5]];portConstraint=eastwest;" vertex="1" parent="v2Jn4lbNKc6R1VwB_rYv-39">
          <mxGeometry y="67.28571428571428" width="125" height="27" as="geometry" />
        </mxCell>
        <mxCell id="v2Jn4lbNKc6R1VwB_rYv-42" value="ERROR" style="text;strokeColor=none;fillColor=none;align=left;verticalAlign=top;spacingLeft=4;spacingRight=4;overflow=hidden;rotatable=0;points=[[0,0.5],[1,0.5]];portConstraint=eastwest;" vertex="1" parent="v2Jn4lbNKc6R1VwB_rYv-39">
          <mxGeometry y="94.28571428571428" width="125" height="27" as="geometry" />
        </mxCell>
        <mxCell id="v2Jn4lbNKc6R1VwB_rYv-43" value="COMPLETED" style="text;strokeColor=none;fillColor=none;align=left;verticalAlign=top;spacingLeft=4;spacingRight=4;overflow=hidden;rotatable=0;points=[[0,0.5],[1,0.5]];portConstraint=eastwest;" vertex="1" parent="v2Jn4lbNKc6R1VwB_rYv-39">
          <mxGeometry y="121.28571428571428" width="125" height="27" as="geometry" />
        </mxCell>
        <mxCell id="v2Jn4lbNKc6R1VwB_rYv-44" value="CANCELED" style="text;strokeColor=none;fillColor=none;align=left;verticalAlign=top;spacingLeft=4;spacingRight=4;overflow=hidden;rotatable=0;points=[[0,0.5],[1,0.5]];portConstraint=eastwest;" vertex="1" parent="v2Jn4lbNKc6R1VwB_rYv-39">
          <mxGeometry y="148.28571428571428" width="125" height="27" as="geometry" />
        </mxCell>
        <mxCell id="v2Jn4lbNKc6R1VwB_rYv-45" style="line;strokeWidth=1;fillColor=none;align=left;verticalAlign=middle;spacingTop=-1;spacingLeft=3;spacingRight=3;rotatable=0;labelPosition=right;points=[];portConstraint=eastwest;strokeColor=inherit;" vertex="1" parent="v2Jn4lbNKc6R1VwB_rYv-39">
          <mxGeometry y="175.28571428571428" width="125" height="13" as="geometry" />
        </mxCell>
        <mxCell id="v2Jn4lbNKc6R1VwB_rYv-46" value="&lt;&lt;enumeration&gt;&gt;&#xa;TaskType" style="swimlane;fontStyle=1;align=center;verticalAlign=top;childLayout=stackLayout;horizontal=1;startSize=41.25;horizontalStack=0;resizeParent=1;resizeParentMax=0;resizeLast=0;collapsible=0;marginBottom=0;" vertex="1" parent="1">
          <mxGeometry x="764" y="446.57" width="123" height="167.25" as="geometry" />
        </mxCell>
        <mxCell id="v2Jn4lbNKc6R1VwB_rYv-47" value="DIRECT" style="text;strokeColor=none;fillColor=none;align=left;verticalAlign=top;spacingLeft=4;spacingRight=4;overflow=hidden;rotatable=0;points=[[0,0.5],[1,0.5]];portConstraint=eastwest;" vertex="1" parent="v2Jn4lbNKc6R1VwB_rYv-46">
          <mxGeometry y="41.25" width="123" height="28" as="geometry" />
        </mxCell>
        <mxCell id="v2Jn4lbNKc6R1VwB_rYv-48" value="SCHEDULED" style="text;strokeColor=none;fillColor=none;align=left;verticalAlign=top;spacingLeft=4;spacingRight=4;overflow=hidden;rotatable=0;points=[[0,0.5],[1,0.5]];portConstraint=eastwest;" vertex="1" parent="v2Jn4lbNKc6R1VwB_rYv-46">
          <mxGeometry y="69.25" width="123" height="28" as="geometry" />
        </mxCell>
        <mxCell id="v2Jn4lbNKc6R1VwB_rYv-49" value="APPROVAL" style="text;strokeColor=none;fillColor=none;align=left;verticalAlign=top;spacingLeft=4;spacingRight=4;overflow=hidden;rotatable=0;points=[[0,0.5],[1,0.5]];portConstraint=eastwest;" vertex="1" parent="v2Jn4lbNKc6R1VwB_rYv-46">
          <mxGeometry y="97.25" width="123" height="28" as="geometry" />
        </mxCell>
        <mxCell id="v2Jn4lbNKc6R1VwB_rYv-50" value="TRIGGERED" style="text;strokeColor=none;fillColor=none;align=left;verticalAlign=top;spacingLeft=4;spacingRight=4;overflow=hidden;rotatable=0;points=[[0,0.5],[1,0.5]];portConstraint=eastwest;" vertex="1" parent="v2Jn4lbNKc6R1VwB_rYv-46">
          <mxGeometry y="125.25" width="123" height="28" as="geometry" />
        </mxCell>
        <mxCell id="v2Jn4lbNKc6R1VwB_rYv-51" style="line;strokeWidth=1;fillColor=none;align=left;verticalAlign=middle;spacingTop=-1;spacingLeft=3;spacingRight=3;rotatable=0;labelPosition=right;points=[];portConstraint=eastwest;strokeColor=inherit;" vertex="1" parent="v2Jn4lbNKc6R1VwB_rYv-46">
          <mxGeometry y="153.25" width="123" height="14" as="geometry" />
        </mxCell>
        <mxCell id="v2Jn4lbNKc6R1VwB_rYv-52" value="Approval" style="swimlane;fontStyle=1;align=center;verticalAlign=top;childLayout=stackLayout;horizontal=1;startSize=25.818181818181817;horizontalStack=0;resizeParent=1;resizeParentMax=0;resizeLast=0;collapsible=0;marginBottom=0;" vertex="1" parent="1">
          <mxGeometry x="955" y="471" width="201" height="142.8181818181818" as="geometry" />
        </mxCell>
        <mxCell id="v2Jn4lbNKc6R1VwB_rYv-53" value="-id: string" style="text;strokeColor=none;fillColor=none;align=left;verticalAlign=top;spacingLeft=4;spacingRight=4;overflow=hidden;rotatable=0;points=[[0,0.5],[1,0.5]];portConstraint=eastwest;" vertex="1" parent="v2Jn4lbNKc6R1VwB_rYv-52">
          <mxGeometry y="25.818181818181817" width="201" height="26" as="geometry" />
        </mxCell>
        <mxCell id="v2Jn4lbNKc6R1VwB_rYv-54" value="-userId: string" style="text;strokeColor=none;fillColor=none;align=left;verticalAlign=top;spacingLeft=4;spacingRight=4;overflow=hidden;rotatable=0;points=[[0,0.5],[1,0.5]];portConstraint=eastwest;" vertex="1" parent="v2Jn4lbNKc6R1VwB_rYv-52">
          <mxGeometry y="51.81818181818181" width="201" height="26" as="geometry" />
        </mxCell>
        <mxCell id="v2Jn4lbNKc6R1VwB_rYv-55" value="-approved: bool" style="text;strokeColor=none;fillColor=none;align=left;verticalAlign=top;spacingLeft=4;spacingRight=4;overflow=hidden;rotatable=0;points=[[0,0.5],[1,0.5]];portConstraint=eastwest;" vertex="1" parent="v2Jn4lbNKc6R1VwB_rYv-52">
          <mxGeometry y="77.81818181818181" width="201" height="26" as="geometry" />
        </mxCell>
        <mxCell id="v2Jn4lbNKc6R1VwB_rYv-56" value="-approvalDate: time.Time" style="text;strokeColor=none;fillColor=none;align=left;verticalAlign=top;spacingLeft=4;spacingRight=4;overflow=hidden;rotatable=0;points=[[0,0.5],[1,0.5]];portConstraint=eastwest;" vertex="1" parent="v2Jn4lbNKc6R1VwB_rYv-52">
          <mxGeometry y="103.81818181818181" width="201" height="26" as="geometry" />
        </mxCell>
        <mxCell id="v2Jn4lbNKc6R1VwB_rYv-57" style="line;strokeWidth=1;fillColor=none;align=left;verticalAlign=middle;spacingTop=-1;spacingLeft=3;spacingRight=3;rotatable=0;labelPosition=right;points=[];portConstraint=eastwest;strokeColor=inherit;" vertex="1" parent="v2Jn4lbNKc6R1VwB_rYv-52">
          <mxGeometry y="129.8181818181818" width="201" height="13" as="geometry" />
        </mxCell>
        <mxCell id="v2Jn4lbNKc6R1VwB_rYv-58" value="&lt;&lt;interface&gt;&gt;&#xa;Trigger" style="swimlane;fontStyle=1;align=center;verticalAlign=top;childLayout=stackLayout;horizontal=1;startSize=48;horizontalStack=0;resizeParent=1;resizeParentMax=0;resizeLast=0;collapsible=0;marginBottom=0;" vertex="1" parent="1">
          <mxGeometry x="1194" y="450" width="154" height="88" as="geometry" />
        </mxCell>
        <mxCell id="v2Jn4lbNKc6R1VwB_rYv-59" style="line;strokeWidth=1;fillColor=none;align=left;verticalAlign=middle;spacingTop=-1;spacingLeft=3;spacingRight=3;rotatable=0;labelPosition=right;points=[];portConstraint=eastwest;strokeColor=inherit;" vertex="1" parent="v2Jn4lbNKc6R1VwB_rYv-58">
          <mxGeometry y="48" width="154" height="8" as="geometry" />
        </mxCell>
        <mxCell id="v2Jn4lbNKc6R1VwB_rYv-60" value="+Evaluate() : : bool" style="text;strokeColor=none;fillColor=none;align=left;verticalAlign=top;spacingLeft=4;spacingRight=4;overflow=hidden;rotatable=0;points=[[0,0.5],[1,0.5]];portConstraint=eastwest;" vertex="1" parent="v2Jn4lbNKc6R1VwB_rYv-58">
          <mxGeometry y="56" width="154" height="32" as="geometry" />
        </mxCell>
        <mxCell id="v2Jn4lbNKc6R1VwB_rYv-61" value="Schedule" style="swimlane;fontStyle=1;align=center;verticalAlign=top;childLayout=stackLayout;horizontal=1;startSize=29.2;horizontalStack=0;resizeParent=1;resizeParentMax=0;resizeLast=0;collapsible=0;marginBottom=0;" vertex="1" parent="1">
          <mxGeometry x="1399" y="462" width="179" height="73.2" as="geometry" />
        </mxCell>
        <mxCell id="v2Jn4lbNKc6R1VwB_rYv-62" value="-cronExpression: string" style="text;strokeColor=none;fillColor=none;align=left;verticalAlign=top;spacingLeft=4;spacingRight=4;overflow=hidden;rotatable=0;points=[[0,0.5],[1,0.5]];portConstraint=eastwest;" vertex="1" parent="v2Jn4lbNKc6R1VwB_rYv-61">
          <mxGeometry y="29.2" width="179" height="29" as="geometry" />
        </mxCell>
        <mxCell id="v2Jn4lbNKc6R1VwB_rYv-63" style="line;strokeWidth=1;fillColor=none;align=left;verticalAlign=middle;spacingTop=-1;spacingLeft=3;spacingRight=3;rotatable=0;labelPosition=right;points=[];portConstraint=eastwest;strokeColor=inherit;" vertex="1" parent="v2Jn4lbNKc6R1VwB_rYv-61">
          <mxGeometry y="58.2" width="179" height="15" as="geometry" />
        </mxCell>
        <mxCell id="v2Jn4lbNKc6R1VwB_rYv-64" value="Domain" style="swimlane;fontStyle=1;align=center;verticalAlign=top;childLayout=stackLayout;horizontal=1;startSize=27.428571428571427;horizontalStack=0;resizeParent=1;resizeParentMax=0;resizeLast=0;collapsible=0;marginBottom=0;" vertex="1" parent="1">
          <mxGeometry x="1627" y="450" width="111" height="95.42857142857143" as="geometry" />
        </mxCell>
        <mxCell id="v2Jn4lbNKc6R1VwB_rYv-65" value="-id: string" style="text;strokeColor=none;fillColor=none;align=left;verticalAlign=top;spacingLeft=4;spacingRight=4;overflow=hidden;rotatable=0;points=[[0,0.5],[1,0.5]];portConstraint=eastwest;" vertex="1" parent="v2Jn4lbNKc6R1VwB_rYv-64">
          <mxGeometry y="27.428571428571427" width="111" height="27" as="geometry" />
        </mxCell>
        <mxCell id="v2Jn4lbNKc6R1VwB_rYv-66" value="-name: string" style="text;strokeColor=none;fillColor=none;align=left;verticalAlign=top;spacingLeft=4;spacingRight=4;overflow=hidden;rotatable=0;points=[[0,0.5],[1,0.5]];portConstraint=eastwest;" vertex="1" parent="v2Jn4lbNKc6R1VwB_rYv-64">
          <mxGeometry y="54.42857142857143" width="111" height="27" as="geometry" />
        </mxCell>
        <mxCell id="v2Jn4lbNKc6R1VwB_rYv-67" style="line;strokeWidth=1;fillColor=none;align=left;verticalAlign=middle;spacingTop=-1;spacingLeft=3;spacingRight=3;rotatable=0;labelPosition=right;points=[];portConstraint=eastwest;strokeColor=inherit;" vertex="1" parent="v2Jn4lbNKc6R1VwB_rYv-64">
          <mxGeometry y="81.42857142857143" width="111" height="14" as="geometry" />
        </mxCell>
        <mxCell id="v2Jn4lbNKc6R1VwB_rYv-68" value="Role" style="swimlane;fontStyle=1;align=center;verticalAlign=top;childLayout=stackLayout;horizontal=1;startSize=26.444444444444443;horizontalStack=0;resizeParent=1;resizeParentMax=0;resizeLast=0;collapsible=0;marginBottom=0;" vertex="1" parent="1">
          <mxGeometry x="2120" y="439" width="151" height="117.44444444444444" as="geometry" />
        </mxCell>
        <mxCell id="v2Jn4lbNKc6R1VwB_rYv-69" value="-id: string" style="text;strokeColor=none;fillColor=none;align=left;verticalAlign=top;spacingLeft=4;spacingRight=4;overflow=hidden;rotatable=0;points=[[0,0.5],[1,0.5]];portConstraint=eastwest;" vertex="1" parent="v2Jn4lbNKc6R1VwB_rYv-68">
          <mxGeometry y="26.444444444444443" width="151" height="26" as="geometry" />
        </mxCell>
        <mxCell id="v2Jn4lbNKc6R1VwB_rYv-70" value="-name: string" style="text;strokeColor=none;fillColor=none;align=left;verticalAlign=top;spacingLeft=4;spacingRight=4;overflow=hidden;rotatable=0;points=[[0,0.5],[1,0.5]];portConstraint=eastwest;" vertex="1" parent="v2Jn4lbNKc6R1VwB_rYv-68">
          <mxGeometry y="52.44444444444444" width="151" height="26" as="geometry" />
        </mxCell>
        <mxCell id="v2Jn4lbNKc6R1VwB_rYv-71" value="-rules: PolicyRule[]" style="text;strokeColor=none;fillColor=none;align=left;verticalAlign=top;spacingLeft=4;spacingRight=4;overflow=hidden;rotatable=0;points=[[0,0.5],[1,0.5]];portConstraint=eastwest;" vertex="1" parent="v2Jn4lbNKc6R1VwB_rYv-68">
          <mxGeometry y="78.44444444444444" width="151" height="26" as="geometry" />
        </mxCell>
        <mxCell id="v2Jn4lbNKc6R1VwB_rYv-72" style="line;strokeWidth=1;fillColor=none;align=left;verticalAlign=middle;spacingTop=-1;spacingLeft=3;spacingRight=3;rotatable=0;labelPosition=right;points=[];portConstraint=eastwest;strokeColor=inherit;" vertex="1" parent="v2Jn4lbNKc6R1VwB_rYv-68">
          <mxGeometry y="104.44444444444444" width="151" height="13" as="geometry" />
        </mxCell>
        <mxCell id="v2Jn4lbNKc6R1VwB_rYv-73" value="PolicyRule" style="swimlane;fontStyle=1;align=center;verticalAlign=top;childLayout=stackLayout;horizontal=1;startSize=26.444444444444443;horizontalStack=0;resizeParent=1;resizeParentMax=0;resizeLast=0;collapsible=0;marginBottom=0;" vertex="1" parent="1">
          <mxGeometry x="2089" y="685" width="212" height="117.44444444444444" as="geometry" />
        </mxCell>
        <mxCell id="v2Jn4lbNKc6R1VwB_rYv-74" value="-verbs: Verb[]" style="text;strokeColor=none;fillColor=none;align=left;verticalAlign=top;spacingLeft=4;spacingRight=4;overflow=hidden;rotatable=0;points=[[0,0.5],[1,0.5]];portConstraint=eastwest;" vertex="1" parent="v2Jn4lbNKc6R1VwB_rYv-73">
          <mxGeometry y="26.444444444444443" width="212" height="26" as="geometry" />
        </mxCell>
        <mxCell id="v2Jn4lbNKc6R1VwB_rYv-75" value="-devOpsTaskIds: string[]" style="text;strokeColor=none;fillColor=none;align=left;verticalAlign=top;spacingLeft=4;spacingRight=4;overflow=hidden;rotatable=0;points=[[0,0.5],[1,0.5]];portConstraint=eastwest;" vertex="1" parent="v2Jn4lbNKc6R1VwB_rYv-73">
          <mxGeometry y="52.44444444444444" width="212" height="26" as="geometry" />
        </mxCell>
        <mxCell id="v2Jn4lbNKc6R1VwB_rYv-76" value="-devOpstaskNames: string[]" style="text;strokeColor=none;fillColor=none;align=left;verticalAlign=top;spacingLeft=4;spacingRight=4;overflow=hidden;rotatable=0;points=[[0,0.5],[1,0.5]];portConstraint=eastwest;" vertex="1" parent="v2Jn4lbNKc6R1VwB_rYv-73">
          <mxGeometry y="78.44444444444444" width="212" height="26" as="geometry" />
        </mxCell>
        <mxCell id="v2Jn4lbNKc6R1VwB_rYv-77" style="line;strokeWidth=1;fillColor=none;align=left;verticalAlign=middle;spacingTop=-1;spacingLeft=3;spacingRight=3;rotatable=0;labelPosition=right;points=[];portConstraint=eastwest;strokeColor=inherit;" vertex="1" parent="v2Jn4lbNKc6R1VwB_rYv-73">
          <mxGeometry y="104.44444444444444" width="212" height="13" as="geometry" />
        </mxCell>
        <mxCell id="v2Jn4lbNKc6R1VwB_rYv-78" value="&lt;&lt;enumeration&gt;&gt;&#xa;Verb" style="swimlane;fontStyle=1;align=center;verticalAlign=top;childLayout=stackLayout;horizontal=1;startSize=39.5625;horizontalStack=0;resizeParent=1;resizeParentMax=0;resizeLast=0;collapsible=0;marginBottom=0;" vertex="1" parent="1">
          <mxGeometry x="2134" y="896" width="123" height="208.5625" as="geometry" />
        </mxCell>
        <mxCell id="v2Jn4lbNKc6R1VwB_rYv-79" value="GET" style="text;strokeColor=none;fillColor=none;align=left;verticalAlign=top;spacingLeft=4;spacingRight=4;overflow=hidden;rotatable=0;points=[[0,0.5],[1,0.5]];portConstraint=eastwest;" vertex="1" parent="v2Jn4lbNKc6R1VwB_rYv-78">
          <mxGeometry y="39.5625" width="123" height="26" as="geometry" />
        </mxCell>
        <mxCell id="v2Jn4lbNKc6R1VwB_rYv-80" value="LIST" style="text;strokeColor=none;fillColor=none;align=left;verticalAlign=top;spacingLeft=4;spacingRight=4;overflow=hidden;rotatable=0;points=[[0,0.5],[1,0.5]];portConstraint=eastwest;" vertex="1" parent="v2Jn4lbNKc6R1VwB_rYv-78">
          <mxGeometry y="65.5625" width="123" height="26" as="geometry" />
        </mxCell>
        <mxCell id="v2Jn4lbNKc6R1VwB_rYv-81" value="CREATE" style="text;strokeColor=none;fillColor=none;align=left;verticalAlign=top;spacingLeft=4;spacingRight=4;overflow=hidden;rotatable=0;points=[[0,0.5],[1,0.5]];portConstraint=eastwest;" vertex="1" parent="v2Jn4lbNKc6R1VwB_rYv-78">
          <mxGeometry y="91.5625" width="123" height="26" as="geometry" />
        </mxCell>
        <mxCell id="v2Jn4lbNKc6R1VwB_rYv-82" value="UPDATE" style="text;strokeColor=none;fillColor=none;align=left;verticalAlign=top;spacingLeft=4;spacingRight=4;overflow=hidden;rotatable=0;points=[[0,0.5],[1,0.5]];portConstraint=eastwest;" vertex="1" parent="v2Jn4lbNKc6R1VwB_rYv-78">
          <mxGeometry y="117.5625" width="123" height="26" as="geometry" />
        </mxCell>
        <mxCell id="v2Jn4lbNKc6R1VwB_rYv-83" value="DELETE" style="text;strokeColor=none;fillColor=none;align=left;verticalAlign=top;spacingLeft=4;spacingRight=4;overflow=hidden;rotatable=0;points=[[0,0.5],[1,0.5]];portConstraint=eastwest;" vertex="1" parent="v2Jn4lbNKc6R1VwB_rYv-78">
          <mxGeometry y="143.5625" width="123" height="26" as="geometry" />
        </mxCell>
        <mxCell id="v2Jn4lbNKc6R1VwB_rYv-84" value="EXECUTE" style="text;strokeColor=none;fillColor=none;align=left;verticalAlign=top;spacingLeft=4;spacingRight=4;overflow=hidden;rotatable=0;points=[[0,0.5],[1,0.5]];portConstraint=eastwest;" vertex="1" parent="v2Jn4lbNKc6R1VwB_rYv-78">
          <mxGeometry y="169.5625" width="123" height="26" as="geometry" />
        </mxCell>
        <mxCell id="v2Jn4lbNKc6R1VwB_rYv-85" style="line;strokeWidth=1;fillColor=none;align=left;verticalAlign=middle;spacingTop=-1;spacingLeft=3;spacingRight=3;rotatable=0;labelPosition=right;points=[];portConstraint=eastwest;strokeColor=inherit;" vertex="1" parent="v2Jn4lbNKc6R1VwB_rYv-78">
          <mxGeometry y="195.5625" width="123" height="13" as="geometry" />
        </mxCell>
        <mxCell id="v2Jn4lbNKc6R1VwB_rYv-86" value="RoleBinding" style="swimlane;fontStyle=1;align=center;verticalAlign=top;childLayout=stackLayout;horizontal=1;startSize=25.384615384615383;horizontalStack=0;resizeParent=1;resizeParentMax=0;resizeLast=0;collapsible=0;marginBottom=0;" vertex="1" parent="1">
          <mxGeometry x="2117" y="101" width="157" height="163.3846153846154" as="geometry" />
        </mxCell>
        <mxCell id="v2Jn4lbNKc6R1VwB_rYv-87" value="-id: string" style="text;strokeColor=none;fillColor=none;align=left;verticalAlign=top;spacingLeft=4;spacingRight=4;overflow=hidden;rotatable=0;points=[[0,0.5],[1,0.5]];portConstraint=eastwest;" vertex="1" parent="v2Jn4lbNKc6R1VwB_rYv-86">
          <mxGeometry y="25.384615384615383" width="157" height="25" as="geometry" />
        </mxCell>
        <mxCell id="v2Jn4lbNKc6R1VwB_rYv-88" value="-name: string" style="text;strokeColor=none;fillColor=none;align=left;verticalAlign=top;spacingLeft=4;spacingRight=4;overflow=hidden;rotatable=0;points=[[0,0.5],[1,0.5]];portConstraint=eastwest;" vertex="1" parent="v2Jn4lbNKc6R1VwB_rYv-86">
          <mxGeometry y="50.38461538461539" width="157" height="25" as="geometry" />
        </mxCell>
        <mxCell id="v2Jn4lbNKc6R1VwB_rYv-89" value="-role: Role" style="text;strokeColor=none;fillColor=none;align=left;verticalAlign=top;spacingLeft=4;spacingRight=4;overflow=hidden;rotatable=0;points=[[0,0.5],[1,0.5]];portConstraint=eastwest;" vertex="1" parent="v2Jn4lbNKc6R1VwB_rYv-86">
          <mxGeometry y="75.38461538461539" width="157" height="25" as="geometry" />
        </mxCell>
        <mxCell id="v2Jn4lbNKc6R1VwB_rYv-90" value="-subjects: Subject[]" style="text;strokeColor=none;fillColor=none;align=left;verticalAlign=top;spacingLeft=4;spacingRight=4;overflow=hidden;rotatable=0;points=[[0,0.5],[1,0.5]];portConstraint=eastwest;" vertex="1" parent="v2Jn4lbNKc6R1VwB_rYv-86">
          <mxGeometry y="100.38461538461539" width="157" height="25" as="geometry" />
        </mxCell>
        <mxCell id="v2Jn4lbNKc6R1VwB_rYv-91" value="-domain: Domain" style="text;strokeColor=none;fillColor=none;align=left;verticalAlign=top;spacingLeft=4;spacingRight=4;overflow=hidden;rotatable=0;points=[[0,0.5],[1,0.5]];portConstraint=eastwest;" vertex="1" parent="v2Jn4lbNKc6R1VwB_rYv-86">
          <mxGeometry y="125.38461538461539" width="157" height="25" as="geometry" />
        </mxCell>
        <mxCell id="v2Jn4lbNKc6R1VwB_rYv-92" style="line;strokeWidth=1;fillColor=none;align=left;verticalAlign=middle;spacingTop=-1;spacingLeft=3;spacingRight=3;rotatable=0;labelPosition=right;points=[];portConstraint=eastwest;strokeColor=inherit;" vertex="1" parent="v2Jn4lbNKc6R1VwB_rYv-86">
          <mxGeometry y="150.3846153846154" width="157" height="13" as="geometry" />
        </mxCell>
        <mxCell id="v2Jn4lbNKc6R1VwB_rYv-93" value="DomainRoleBinding" style="swimlane;fontStyle=1;align=center;verticalAlign=top;childLayout=stackLayout;horizontal=1;startSize=25.818181818181817;horizontalStack=0;resizeParent=1;resizeParentMax=0;resizeLast=0;collapsible=0;marginBottom=0;" vertex="1" parent="1">
          <mxGeometry x="2512" y="57" width="199" height="142.8181818181818" as="geometry" />
        </mxCell>
        <mxCell id="v2Jn4lbNKc6R1VwB_rYv-94" value="-id: string" style="text;strokeColor=none;fillColor=none;align=left;verticalAlign=top;spacingLeft=4;spacingRight=4;overflow=hidden;rotatable=0;points=[[0,0.5],[1,0.5]];portConstraint=eastwest;" vertex="1" parent="v2Jn4lbNKc6R1VwB_rYv-93">
          <mxGeometry y="25.818181818181817" width="199" height="26" as="geometry" />
        </mxCell>
        <mxCell id="v2Jn4lbNKc6R1VwB_rYv-95" value="-name: string" style="text;strokeColor=none;fillColor=none;align=left;verticalAlign=top;spacingLeft=4;spacingRight=4;overflow=hidden;rotatable=0;points=[[0,0.5],[1,0.5]];portConstraint=eastwest;" vertex="1" parent="v2Jn4lbNKc6R1VwB_rYv-93">
          <mxGeometry y="51.81818181818181" width="199" height="26" as="geometry" />
        </mxCell>
        <mxCell id="v2Jn4lbNKc6R1VwB_rYv-96" value="-domainRole: DomainRole" style="text;strokeColor=none;fillColor=none;align=left;verticalAlign=top;spacingLeft=4;spacingRight=4;overflow=hidden;rotatable=0;points=[[0,0.5],[1,0.5]];portConstraint=eastwest;" vertex="1" parent="v2Jn4lbNKc6R1VwB_rYv-93">
          <mxGeometry y="77.81818181818181" width="199" height="26" as="geometry" />
        </mxCell>
        <mxCell id="v2Jn4lbNKc6R1VwB_rYv-97" value="-subjects: Subject[]" style="text;strokeColor=none;fillColor=none;align=left;verticalAlign=top;spacingLeft=4;spacingRight=4;overflow=hidden;rotatable=0;points=[[0,0.5],[1,0.5]];portConstraint=eastwest;" vertex="1" parent="v2Jn4lbNKc6R1VwB_rYv-93">
          <mxGeometry y="103.81818181818181" width="199" height="26" as="geometry" />
        </mxCell>
        <mxCell id="v2Jn4lbNKc6R1VwB_rYv-98" style="line;strokeWidth=1;fillColor=none;align=left;verticalAlign=middle;spacingTop=-1;spacingLeft=3;spacingRight=3;rotatable=0;labelPosition=right;points=[];portConstraint=eastwest;strokeColor=inherit;" vertex="1" parent="v2Jn4lbNKc6R1VwB_rYv-93">
          <mxGeometry y="129.8181818181818" width="199" height="13" as="geometry" />
        </mxCell>
        <mxCell id="v2Jn4lbNKc6R1VwB_rYv-99" value="&lt;&lt;interface&gt;&gt;&#xa;Subject" style="swimlane;fontStyle=1;align=center;verticalAlign=top;childLayout=stackLayout;horizontal=1;startSize=48;horizontalStack=0;resizeParent=1;resizeParentMax=0;resizeLast=0;collapsible=0;marginBottom=0;" vertex="1" parent="1">
          <mxGeometry x="2419" y="450" width="201" height="88" as="geometry" />
        </mxCell>
        <mxCell id="v2Jn4lbNKc6R1VwB_rYv-100" style="line;strokeWidth=1;fillColor=none;align=left;verticalAlign=middle;spacingTop=-1;spacingLeft=3;spacingRight=3;rotatable=0;labelPosition=right;points=[];portConstraint=eastwest;strokeColor=inherit;" vertex="1" parent="v2Jn4lbNKc6R1VwB_rYv-99">
          <mxGeometry y="48" width="201" height="8" as="geometry" />
        </mxCell>
        <mxCell id="v2Jn4lbNKc6R1VwB_rYv-101" value="+getKind() : : SubjectKind" style="text;strokeColor=none;fillColor=none;align=left;verticalAlign=top;spacingLeft=4;spacingRight=4;overflow=hidden;rotatable=0;points=[[0,0.5],[1,0.5]];portConstraint=eastwest;" vertex="1" parent="v2Jn4lbNKc6R1VwB_rYv-99">
          <mxGeometry y="56" width="201" height="32" as="geometry" />
        </mxCell>
        <mxCell id="v2Jn4lbNKc6R1VwB_rYv-107" value="&lt;&lt;implements Subject&gt;&gt;&#xa;User" style="swimlane;fontStyle=1;align=center;verticalAlign=top;childLayout=stackLayout;horizontal=1;startSize=43.38461538461539;horizontalStack=0;resizeParent=1;resizeParentMax=0;resizeLast=0;collapsible=0;marginBottom=0;" vertex="1" parent="1">
          <mxGeometry x="2351" y="650" width="201" height="196.3846153846154" as="geometry" />
        </mxCell>
        <mxCell id="v2Jn4lbNKc6R1VwB_rYv-108" value="-id: string" style="text;strokeColor=none;fillColor=none;align=left;verticalAlign=top;spacingLeft=4;spacingRight=4;overflow=hidden;rotatable=0;points=[[0,0.5],[1,0.5]];portConstraint=eastwest;" vertex="1" parent="v2Jn4lbNKc6R1VwB_rYv-107">
          <mxGeometry y="43.38461538461539" width="201" height="29" as="geometry" />
        </mxCell>
        <mxCell id="v2Jn4lbNKc6R1VwB_rYv-109" value="-name: string" style="text;strokeColor=none;fillColor=none;align=left;verticalAlign=top;spacingLeft=4;spacingRight=4;overflow=hidden;rotatable=0;points=[[0,0.5],[1,0.5]];portConstraint=eastwest;" vertex="1" parent="v2Jn4lbNKc6R1VwB_rYv-107">
          <mxGeometry y="72.38461538461539" width="201" height="29" as="geometry" />
        </mxCell>
        <mxCell id="v2Jn4lbNKc6R1VwB_rYv-110" value="-email: string" style="text;strokeColor=none;fillColor=none;align=left;verticalAlign=top;spacingLeft=4;spacingRight=4;overflow=hidden;rotatable=0;points=[[0,0.5],[1,0.5]];portConstraint=eastwest;" vertex="1" parent="v2Jn4lbNKc6R1VwB_rYv-107">
          <mxGeometry y="101.38461538461539" width="201" height="29" as="geometry" />
        </mxCell>
        <mxCell id="v2Jn4lbNKc6R1VwB_rYv-111" value="-groups: Group[]" style="text;strokeColor=none;fillColor=none;align=left;verticalAlign=top;spacingLeft=4;spacingRight=4;overflow=hidden;rotatable=0;points=[[0,0.5],[1,0.5]];portConstraint=eastwest;" vertex="1" parent="v2Jn4lbNKc6R1VwB_rYv-107">
          <mxGeometry y="130.3846153846154" width="201" height="29" as="geometry" />
        </mxCell>
        <mxCell id="v2Jn4lbNKc6R1VwB_rYv-112" style="line;strokeWidth=1;fillColor=none;align=left;verticalAlign=middle;spacingTop=-1;spacingLeft=3;spacingRight=3;rotatable=0;labelPosition=right;points=[];portConstraint=eastwest;strokeColor=inherit;" vertex="1" parent="v2Jn4lbNKc6R1VwB_rYv-107">
          <mxGeometry y="159.3846153846154" width="201" height="8" as="geometry" />
        </mxCell>
        <mxCell id="v2Jn4lbNKc6R1VwB_rYv-113" value="+getKind() : : SubjectKind" style="text;strokeColor=none;fillColor=none;align=left;verticalAlign=top;spacingLeft=4;spacingRight=4;overflow=hidden;rotatable=0;points=[[0,0.5],[1,0.5]];portConstraint=eastwest;" vertex="1" parent="v2Jn4lbNKc6R1VwB_rYv-107">
          <mxGeometry y="167.3846153846154" width="201" height="29" as="geometry" />
        </mxCell>
        <mxCell id="v2Jn4lbNKc6R1VwB_rYv-114" value="&lt;&lt;implements Subject&gt;&gt;&#xa;Group" style="swimlane;fontStyle=1;align=center;verticalAlign=top;childLayout=stackLayout;horizontal=1;startSize=45;horizontalStack=0;resizeParent=1;resizeParentMax=0;resizeLast=0;collapsible=0;marginBottom=0;" vertex="1" parent="1">
          <mxGeometry x="2616" y="661.69" width="201" height="173" as="geometry" />
        </mxCell>
        <mxCell id="v2Jn4lbNKc6R1VwB_rYv-115" value="-id: string" style="text;strokeColor=none;fillColor=none;align=left;verticalAlign=top;spacingLeft=4;spacingRight=4;overflow=hidden;rotatable=0;points=[[0,0.5],[1,0.5]];portConstraint=eastwest;" vertex="1" parent="v2Jn4lbNKc6R1VwB_rYv-114">
          <mxGeometry y="45" width="201" height="30" as="geometry" />
        </mxCell>
        <mxCell id="v2Jn4lbNKc6R1VwB_rYv-116" value="-name: string" style="text;strokeColor=none;fillColor=none;align=left;verticalAlign=top;spacingLeft=4;spacingRight=4;overflow=hidden;rotatable=0;points=[[0,0.5],[1,0.5]];portConstraint=eastwest;" vertex="1" parent="v2Jn4lbNKc6R1VwB_rYv-114">
          <mxGeometry y="75" width="201" height="30" as="geometry" />
        </mxCell>
        <mxCell id="v2Jn4lbNKc6R1VwB_rYv-117" value="-users: User[]" style="text;strokeColor=none;fillColor=none;align=left;verticalAlign=top;spacingLeft=4;spacingRight=4;overflow=hidden;rotatable=0;points=[[0,0.5],[1,0.5]];portConstraint=eastwest;" vertex="1" parent="v2Jn4lbNKc6R1VwB_rYv-114">
          <mxGeometry y="105" width="201" height="30" as="geometry" />
        </mxCell>
        <mxCell id="v2Jn4lbNKc6R1VwB_rYv-118" style="line;strokeWidth=1;fillColor=none;align=left;verticalAlign=middle;spacingTop=-1;spacingLeft=3;spacingRight=3;rotatable=0;labelPosition=right;points=[];portConstraint=eastwest;strokeColor=inherit;" vertex="1" parent="v2Jn4lbNKc6R1VwB_rYv-114">
          <mxGeometry y="135" width="201" height="8" as="geometry" />
        </mxCell>
        <mxCell id="v2Jn4lbNKc6R1VwB_rYv-119" value="+getKind() : : SubjectKind" style="text;strokeColor=none;fillColor=none;align=left;verticalAlign=top;spacingLeft=4;spacingRight=4;overflow=hidden;rotatable=0;points=[[0,0.5],[1,0.5]];portConstraint=eastwest;" vertex="1" parent="v2Jn4lbNKc6R1VwB_rYv-114">
          <mxGeometry y="143" width="201" height="30" as="geometry" />
        </mxCell>
        <mxCell id="v2Jn4lbNKc6R1VwB_rYv-120" value="&lt;&lt;implements Subject&gt;&gt;&#xa;ServiceAccount" style="swimlane;fontStyle=1;align=center;verticalAlign=top;childLayout=stackLayout;horizontal=1;startSize=45;horizontalStack=0;resizeParent=1;resizeParentMax=0;resizeLast=0;collapsible=0;marginBottom=0;" vertex="1" parent="1">
          <mxGeometry x="2900" y="654.81" width="201" height="173" as="geometry" />
        </mxCell>
        <mxCell id="v2Jn4lbNKc6R1VwB_rYv-121" value="-id: string" style="text;strokeColor=none;fillColor=none;align=left;verticalAlign=top;spacingLeft=4;spacingRight=4;overflow=hidden;rotatable=0;points=[[0,0.5],[1,0.5]];portConstraint=eastwest;" vertex="1" parent="v2Jn4lbNKc6R1VwB_rYv-120">
          <mxGeometry y="45" width="201" height="30" as="geometry" />
        </mxCell>
        <mxCell id="v2Jn4lbNKc6R1VwB_rYv-122" value="-name: string" style="text;strokeColor=none;fillColor=none;align=left;verticalAlign=top;spacingLeft=4;spacingRight=4;overflow=hidden;rotatable=0;points=[[0,0.5],[1,0.5]];portConstraint=eastwest;" vertex="1" parent="v2Jn4lbNKc6R1VwB_rYv-120">
          <mxGeometry y="75" width="201" height="30" as="geometry" />
        </mxCell>
        <mxCell id="v2Jn4lbNKc6R1VwB_rYv-123" value="-domain: Domain" style="text;strokeColor=none;fillColor=none;align=left;verticalAlign=top;spacingLeft=4;spacingRight=4;overflow=hidden;rotatable=0;points=[[0,0.5],[1,0.5]];portConstraint=eastwest;" vertex="1" parent="v2Jn4lbNKc6R1VwB_rYv-120">
          <mxGeometry y="105" width="201" height="30" as="geometry" />
        </mxCell>
        <mxCell id="v2Jn4lbNKc6R1VwB_rYv-124" style="line;strokeWidth=1;fillColor=none;align=left;verticalAlign=middle;spacingTop=-1;spacingLeft=3;spacingRight=3;rotatable=0;labelPosition=right;points=[];portConstraint=eastwest;strokeColor=inherit;" vertex="1" parent="v2Jn4lbNKc6R1VwB_rYv-120">
          <mxGeometry y="135" width="201" height="8" as="geometry" />
        </mxCell>
        <mxCell id="v2Jn4lbNKc6R1VwB_rYv-125" value="+getKind() : : SubjectKind" style="text;strokeColor=none;fillColor=none;align=left;verticalAlign=top;spacingLeft=4;spacingRight=4;overflow=hidden;rotatable=0;points=[[0,0.5],[1,0.5]];portConstraint=eastwest;" vertex="1" parent="v2Jn4lbNKc6R1VwB_rYv-120">
          <mxGeometry y="143" width="201" height="30" as="geometry" />
        </mxCell>
        <mxCell id="v2Jn4lbNKc6R1VwB_rYv-126" value="DomainRole" style="swimlane;fontStyle=1;align=center;verticalAlign=top;childLayout=stackLayout;horizontal=1;startSize=26.444444444444443;horizontalStack=0;resizeParent=1;resizeParentMax=0;resizeLast=0;collapsible=0;marginBottom=0;" vertex="1" parent="1">
          <mxGeometry x="2566" y="303" width="151" height="117.44444444444444" as="geometry" />
        </mxCell>
        <mxCell id="v2Jn4lbNKc6R1VwB_rYv-127" value="-id: string" style="text;strokeColor=none;fillColor=none;align=left;verticalAlign=top;spacingLeft=4;spacingRight=4;overflow=hidden;rotatable=0;points=[[0,0.5],[1,0.5]];portConstraint=eastwest;" vertex="1" parent="v2Jn4lbNKc6R1VwB_rYv-126">
          <mxGeometry y="26.444444444444443" width="151" height="26" as="geometry" />
        </mxCell>
        <mxCell id="v2Jn4lbNKc6R1VwB_rYv-128" value="-name: string" style="text;strokeColor=none;fillColor=none;align=left;verticalAlign=top;spacingLeft=4;spacingRight=4;overflow=hidden;rotatable=0;points=[[0,0.5],[1,0.5]];portConstraint=eastwest;" vertex="1" parent="v2Jn4lbNKc6R1VwB_rYv-126">
          <mxGeometry y="52.44444444444444" width="151" height="26" as="geometry" />
        </mxCell>
        <mxCell id="v2Jn4lbNKc6R1VwB_rYv-129" value="-rules: PolicyRule[]" style="text;strokeColor=none;fillColor=none;align=left;verticalAlign=top;spacingLeft=4;spacingRight=4;overflow=hidden;rotatable=0;points=[[0,0.5],[1,0.5]];portConstraint=eastwest;" vertex="1" parent="v2Jn4lbNKc6R1VwB_rYv-126">
          <mxGeometry y="78.44444444444444" width="151" height="26" as="geometry" />
        </mxCell>
        <mxCell id="v2Jn4lbNKc6R1VwB_rYv-130" style="line;strokeWidth=1;fillColor=none;align=left;verticalAlign=middle;spacingTop=-1;spacingLeft=3;spacingRight=3;rotatable=0;labelPosition=right;points=[];portConstraint=eastwest;strokeColor=inherit;" vertex="1" parent="v2Jn4lbNKc6R1VwB_rYv-126">
          <mxGeometry y="104.44444444444444" width="151" height="13" as="geometry" />
        </mxCell>
        <mxCell id="v2Jn4lbNKc6R1VwB_rYv-131" value="&lt;&lt;interface&gt;&gt;&#xa;TaskRepository" style="swimlane;fontStyle=1;align=center;verticalAlign=top;childLayout=stackLayout;horizontal=1;startSize=40.285714285714285;horizontalStack=0;resizeParent=1;resizeParentMax=0;resizeLast=0;collapsible=0;marginBottom=0;" vertex="1" parent="1">
          <mxGeometry x="160" y="1347" width="424" height="183.28571428571428" as="geometry" />
        </mxCell>
        <mxCell id="v2Jn4lbNKc6R1VwB_rYv-132" style="line;strokeWidth=1;fillColor=none;align=left;verticalAlign=middle;spacingTop=-1;spacingLeft=3;spacingRight=3;rotatable=0;labelPosition=right;points=[];portConstraint=eastwest;strokeColor=inherit;" vertex="1" parent="v2Jn4lbNKc6R1VwB_rYv-131">
          <mxGeometry y="40.285714285714285" width="424" height="8" as="geometry" />
        </mxCell>
        <mxCell id="v2Jn4lbNKc6R1VwB_rYv-133" value="+Create(task: DevOpsTask) : : error" style="text;strokeColor=none;fillColor=none;align=left;verticalAlign=top;spacingLeft=4;spacingRight=4;overflow=hidden;rotatable=0;points=[[0,0.5],[1,0.5]];portConstraint=eastwest;" vertex="1" parent="v2Jn4lbNKc6R1VwB_rYv-131">
          <mxGeometry y="48.285714285714285" width="424" height="27" as="geometry" />
        </mxCell>
        <mxCell id="v2Jn4lbNKc6R1VwB_rYv-134" value="+Update(task: DevOpsTask) : : error" style="text;strokeColor=none;fillColor=none;align=left;verticalAlign=top;spacingLeft=4;spacingRight=4;overflow=hidden;rotatable=0;points=[[0,0.5],[1,0.5]];portConstraint=eastwest;" vertex="1" parent="v2Jn4lbNKc6R1VwB_rYv-131">
          <mxGeometry y="75.28571428571428" width="424" height="27" as="geometry" />
        </mxCell>
        <mxCell id="v2Jn4lbNKc6R1VwB_rYv-135" value="+Delete(taskID: string, domain: Domain) : : error" style="text;strokeColor=none;fillColor=none;align=left;verticalAlign=top;spacingLeft=4;spacingRight=4;overflow=hidden;rotatable=0;points=[[0,0.5],[1,0.5]];portConstraint=eastwest;" vertex="1" parent="v2Jn4lbNKc6R1VwB_rYv-131">
          <mxGeometry y="102.28571428571428" width="424" height="27" as="geometry" />
        </mxCell>
        <mxCell id="v2Jn4lbNKc6R1VwB_rYv-136" value="+GetByID(taskID: string, domain: Domain) : : DevOpsTask" style="text;strokeColor=none;fillColor=none;align=left;verticalAlign=top;spacingLeft=4;spacingRight=4;overflow=hidden;rotatable=0;points=[[0,0.5],[1,0.5]];portConstraint=eastwest;" vertex="1" parent="v2Jn4lbNKc6R1VwB_rYv-131">
          <mxGeometry y="129.28571428571428" width="424" height="27" as="geometry" />
        </mxCell>
        <mxCell id="v2Jn4lbNKc6R1VwB_rYv-137" value="+GetAll(filters: TaskFilters) : : DevOpsTask[]" style="text;strokeColor=none;fillColor=none;align=left;verticalAlign=top;spacingLeft=4;spacingRight=4;overflow=hidden;rotatable=0;points=[[0,0.5],[1,0.5]];portConstraint=eastwest;" vertex="1" parent="v2Jn4lbNKc6R1VwB_rYv-131">
          <mxGeometry y="156.28571428571428" width="424" height="27" as="geometry" />
        </mxCell>
        <mxCell id="v2Jn4lbNKc6R1VwB_rYv-138" value="TaskFilters" style="swimlane;fontStyle=1;align=center;verticalAlign=top;childLayout=stackLayout;horizontal=1;startSize=26.444444444444443;horizontalStack=0;resizeParent=1;resizeParentMax=0;resizeLast=0;collapsible=0;marginBottom=0;" vertex="1" parent="1">
          <mxGeometry x="1362" y="1575" width="163" height="117.44444444444444" as="geometry" />
        </mxCell>
        <mxCell id="v2Jn4lbNKc6R1VwB_rYv-139" value="-domain: string?" style="text;strokeColor=none;fillColor=none;align=left;verticalAlign=top;spacingLeft=4;spacingRight=4;overflow=hidden;rotatable=0;points=[[0,0.5],[1,0.5]];portConstraint=eastwest;" vertex="1" parent="v2Jn4lbNKc6R1VwB_rYv-138">
          <mxGeometry y="26.444444444444443" width="163" height="26" as="geometry" />
        </mxCell>
        <mxCell id="v2Jn4lbNKc6R1VwB_rYv-140" value="-taskType: TaskType?" style="text;strokeColor=none;fillColor=none;align=left;verticalAlign=top;spacingLeft=4;spacingRight=4;overflow=hidden;rotatable=0;points=[[0,0.5],[1,0.5]];portConstraint=eastwest;" vertex="1" parent="v2Jn4lbNKc6R1VwB_rYv-138">
          <mxGeometry y="52.44444444444444" width="163" height="26" as="geometry" />
        </mxCell>
        <mxCell id="v2Jn4lbNKc6R1VwB_rYv-141" value="-subjects: Subject[]" style="text;strokeColor=none;fillColor=none;align=left;verticalAlign=top;spacingLeft=4;spacingRight=4;overflow=hidden;rotatable=0;points=[[0,0.5],[1,0.5]];portConstraint=eastwest;" vertex="1" parent="v2Jn4lbNKc6R1VwB_rYv-138">
          <mxGeometry y="78.44444444444444" width="163" height="26" as="geometry" />
        </mxCell>
        <mxCell id="v2Jn4lbNKc6R1VwB_rYv-142" style="line;strokeWidth=1;fillColor=none;align=left;verticalAlign=middle;spacingTop=-1;spacingLeft=3;spacingRight=3;rotatable=0;labelPosition=right;points=[];portConstraint=eastwest;strokeColor=inherit;" vertex="1" parent="v2Jn4lbNKc6R1VwB_rYv-138">
          <mxGeometry y="104.44444444444444" width="163" height="13" as="geometry" />
        </mxCell>
        <mxCell id="v2Jn4lbNKc6R1VwB_rYv-143" value="&lt;&lt;interface&gt;&gt;&#xa;TaskService" style="swimlane;fontStyle=1;align=center;verticalAlign=top;childLayout=stackLayout;horizontal=1;startSize=38.55;horizontalStack=0;resizeParent=1;resizeParentMax=0;resizeLast=0;collapsible=0;marginBottom=0;" vertex="1" parent="1">
          <mxGeometry x="253" y="998" width="1025" height="254.55" as="geometry" />
        </mxCell>
        <mxCell id="v2Jn4lbNKc6R1VwB_rYv-144" style="line;strokeWidth=1;fillColor=none;align=left;verticalAlign=middle;spacingTop=-1;spacingLeft=3;spacingRight=3;rotatable=0;labelPosition=right;points=[];portConstraint=eastwest;strokeColor=inherit;" vertex="1" parent="v2Jn4lbNKc6R1VwB_rYv-143">
          <mxGeometry y="38.55" width="1025" height="8" as="geometry" />
        </mxCell>
        <mxCell id="v2Jn4lbNKc6R1VwB_rYv-145" value="+CreateTask(name: string, description: string, config: TaskConfig, domain: string, taskType: TaskType, approvals: Approval[], trigger: Trigger, schedule: Schedule) : : DevOpsTask, error" style="text;strokeColor=none;fillColor=none;align=left;verticalAlign=top;spacingLeft=4;spacingRight=4;overflow=hidden;rotatable=0;points=[[0,0.5],[1,0.5]];portConstraint=eastwest;" vertex="1" parent="v2Jn4lbNKc6R1VwB_rYv-143">
          <mxGeometry y="46.55" width="1025" height="26" as="geometry" />
        </mxCell>
        <mxCell id="v2Jn4lbNKc6R1VwB_rYv-146" value="+UpdateTask(taskID: string, domain: Domain, updates: TaskUpdate) : : DevOpsTask, error" style="text;strokeColor=none;fillColor=none;align=left;verticalAlign=top;spacingLeft=4;spacingRight=4;overflow=hidden;rotatable=0;points=[[0,0.5],[1,0.5]];portConstraint=eastwest;" vertex="1" parent="v2Jn4lbNKc6R1VwB_rYv-143">
          <mxGeometry y="72.55" width="1025" height="26" as="geometry" />
        </mxCell>
        <mxCell id="v2Jn4lbNKc6R1VwB_rYv-147" value="+DeleteTask(taskID: string, domain: Domain) : : error" style="text;strokeColor=none;fillColor=none;align=left;verticalAlign=top;spacingLeft=4;spacingRight=4;overflow=hidden;rotatable=0;points=[[0,0.5],[1,0.5]];portConstraint=eastwest;" vertex="1" parent="v2Jn4lbNKc6R1VwB_rYv-143">
          <mxGeometry y="98.55" width="1025" height="26" as="geometry" />
        </mxCell>
        <mxCell id="v2Jn4lbNKc6R1VwB_rYv-148" value="+GetTask(taskID: string, domain: Domain) : : DevOpsTask, error" style="text;strokeColor=none;fillColor=none;align=left;verticalAlign=top;spacingLeft=4;spacingRight=4;overflow=hidden;rotatable=0;points=[[0,0.5],[1,0.5]];portConstraint=eastwest;" vertex="1" parent="v2Jn4lbNKc6R1VwB_rYv-143">
          <mxGeometry y="124.55" width="1025" height="26" as="geometry" />
        </mxCell>
        <mxCell id="v2Jn4lbNKc6R1VwB_rYv-149" value="+GetTasks(filters: TaskFilters) : : DevOpsTask[], error" style="text;strokeColor=none;fillColor=none;align=left;verticalAlign=top;spacingLeft=4;spacingRight=4;overflow=hidden;rotatable=0;points=[[0,0.5],[1,0.5]];portConstraint=eastwest;" vertex="1" parent="v2Jn4lbNKc6R1VwB_rYv-143">
          <mxGeometry y="150.55" width="1025" height="26" as="geometry" />
        </mxCell>
        <mxCell id="v2Jn4lbNKc6R1VwB_rYv-150" value="+ExecuteTask(taskID: string, domain: Domain) : : TaskExecution, error" style="text;strokeColor=none;fillColor=none;align=left;verticalAlign=top;spacingLeft=4;spacingRight=4;overflow=hidden;rotatable=0;points=[[0,0.5],[1,0.5]];portConstraint=eastwest;" vertex="1" parent="v2Jn4lbNKc6R1VwB_rYv-143">
          <mxGeometry y="176.55" width="1025" height="26" as="geometry" />
        </mxCell>
        <mxCell id="v2Jn4lbNKc6R1VwB_rYv-151" value="+CancelTask(taskID: string, domain: Domain) : : error" style="text;strokeColor=none;fillColor=none;align=left;verticalAlign=top;spacingLeft=4;spacingRight=4;overflow=hidden;rotatable=0;points=[[0,0.5],[1,0.5]];portConstraint=eastwest;" vertex="1" parent="v2Jn4lbNKc6R1VwB_rYv-143">
          <mxGeometry y="202.55" width="1025" height="26" as="geometry" />
        </mxCell>
        <mxCell id="v2Jn4lbNKc6R1VwB_rYv-152" value="+StreamTaskEvents(taskID: string, domain: Domain) : : chan TaskEvent, error" style="text;strokeColor=none;fillColor=none;align=left;verticalAlign=top;spacingLeft=4;spacingRight=4;overflow=hidden;rotatable=0;points=[[0,0.5],[1,0.5]];portConstraint=eastwest;" vertex="1" parent="v2Jn4lbNKc6R1VwB_rYv-143">
          <mxGeometry y="228.55" width="1025" height="26" as="geometry" />
        </mxCell>
        <mxCell id="v2Jn4lbNKc6R1VwB_rYv-153" value="TaskUpdate" style="swimlane;fontStyle=1;align=center;verticalAlign=top;childLayout=stackLayout;horizontal=1;startSize=24.823529411764707;horizontalStack=0;resizeParent=1;resizeParentMax=0;resizeLast=0;collapsible=0;marginBottom=0;" vertex="1" parent="1">
          <mxGeometry x="1368" y="1017" width="180" height="211.8235294117647" as="geometry" />
        </mxCell>
        <mxCell id="v2Jn4lbNKc6R1VwB_rYv-154" value="-name: string?" style="text;strokeColor=none;fillColor=none;align=left;verticalAlign=top;spacingLeft=4;spacingRight=4;overflow=hidden;rotatable=0;points=[[0,0.5],[1,0.5]];portConstraint=eastwest;" vertex="1" parent="v2Jn4lbNKc6R1VwB_rYv-153">
          <mxGeometry y="24.823529411764707" width="180" height="25" as="geometry" />
        </mxCell>
        <mxCell id="v2Jn4lbNKc6R1VwB_rYv-155" value="-description: string?" style="text;strokeColor=none;fillColor=none;align=left;verticalAlign=top;spacingLeft=4;spacingRight=4;overflow=hidden;rotatable=0;points=[[0,0.5],[1,0.5]];portConstraint=eastwest;" vertex="1" parent="v2Jn4lbNKc6R1VwB_rYv-153">
          <mxGeometry y="49.82352941176471" width="180" height="25" as="geometry" />
        </mxCell>
        <mxCell id="v2Jn4lbNKc6R1VwB_rYv-156" value="-config: TaskConfig?" style="text;strokeColor=none;fillColor=none;align=left;verticalAlign=top;spacingLeft=4;spacingRight=4;overflow=hidden;rotatable=0;points=[[0,0.5],[1,0.5]];portConstraint=eastwest;" vertex="1" parent="v2Jn4lbNKc6R1VwB_rYv-153">
          <mxGeometry y="74.82352941176471" width="180" height="25" as="geometry" />
        </mxCell>
        <mxCell id="v2Jn4lbNKc6R1VwB_rYv-157" value="-taskType: TaskType?" style="text;strokeColor=none;fillColor=none;align=left;verticalAlign=top;spacingLeft=4;spacingRight=4;overflow=hidden;rotatable=0;points=[[0,0.5],[1,0.5]];portConstraint=eastwest;" vertex="1" parent="v2Jn4lbNKc6R1VwB_rYv-153">
          <mxGeometry y="99.82352941176471" width="180" height="25" as="geometry" />
        </mxCell>
        <mxCell id="v2Jn4lbNKc6R1VwB_rYv-158" value="-approvals: Approval[]?" style="text;strokeColor=none;fillColor=none;align=left;verticalAlign=top;spacingLeft=4;spacingRight=4;overflow=hidden;rotatable=0;points=[[0,0.5],[1,0.5]];portConstraint=eastwest;" vertex="1" parent="v2Jn4lbNKc6R1VwB_rYv-153">
          <mxGeometry y="124.82352941176471" width="180" height="25" as="geometry" />
        </mxCell>
        <mxCell id="v2Jn4lbNKc6R1VwB_rYv-159" value="-trigger: Trigger?" style="text;strokeColor=none;fillColor=none;align=left;verticalAlign=top;spacingLeft=4;spacingRight=4;overflow=hidden;rotatable=0;points=[[0,0.5],[1,0.5]];portConstraint=eastwest;" vertex="1" parent="v2Jn4lbNKc6R1VwB_rYv-153">
          <mxGeometry y="149.8235294117647" width="180" height="25" as="geometry" />
        </mxCell>
        <mxCell id="v2Jn4lbNKc6R1VwB_rYv-160" value="-schedule: Schedule?" style="text;strokeColor=none;fillColor=none;align=left;verticalAlign=top;spacingLeft=4;spacingRight=4;overflow=hidden;rotatable=0;points=[[0,0.5],[1,0.5]];portConstraint=eastwest;" vertex="1" parent="v2Jn4lbNKc6R1VwB_rYv-153">
          <mxGeometry y="174.8235294117647" width="180" height="25" as="geometry" />
        </mxCell>
        <mxCell id="v2Jn4lbNKc6R1VwB_rYv-161" style="line;strokeWidth=1;fillColor=none;align=left;verticalAlign=middle;spacingTop=-1;spacingLeft=3;spacingRight=3;rotatable=0;labelPosition=right;points=[];portConstraint=eastwest;strokeColor=inherit;" vertex="1" parent="v2Jn4lbNKc6R1VwB_rYv-153">
          <mxGeometry y="199.8235294117647" width="180" height="12" as="geometry" />
        </mxCell>
        <mxCell id="v2Jn4lbNKc6R1VwB_rYv-162" value="&lt;&lt;interface&gt;&gt;&#xa;TaskExecutor" style="swimlane;fontStyle=1;align=center;verticalAlign=top;childLayout=stackLayout;horizontal=1;startSize=48;horizontalStack=0;resizeParent=1;resizeParentMax=0;resizeLast=0;collapsible=0;marginBottom=0;" vertex="1" parent="1">
          <mxGeometry x="675" y="1393" width="622" height="88" as="geometry" />
        </mxCell>
        <mxCell id="v2Jn4lbNKc6R1VwB_rYv-163" style="line;strokeWidth=1;fillColor=none;align=left;verticalAlign=middle;spacingTop=-1;spacingLeft=3;spacingRight=3;rotatable=0;labelPosition=right;points=[];portConstraint=eastwest;strokeColor=inherit;" vertex="1" parent="v2Jn4lbNKc6R1VwB_rYv-162">
          <mxGeometry y="48" width="622" height="8" as="geometry" />
        </mxCell>
        <mxCell id="v2Jn4lbNKc6R1VwB_rYv-164" value="+Execute(task: DevOpsTask, eventStream: TaskEventStream) : : TaskExecution, error" style="text;strokeColor=none;fillColor=none;align=left;verticalAlign=top;spacingLeft=4;spacingRight=4;overflow=hidden;rotatable=0;points=[[0,0.5],[1,0.5]];portConstraint=eastwest;" vertex="1" parent="v2Jn4lbNKc6R1VwB_rYv-162">
          <mxGeometry y="56" width="622" height="32" as="geometry" />
        </mxCell>
        <mxCell id="v2Jn4lbNKc6R1VwB_rYv-165" value="&lt;&lt;interface&gt;&gt;&#xa;TaskEventStream" style="swimlane;fontStyle=1;align=center;verticalAlign=top;childLayout=stackLayout;horizontal=1;startSize=44.625;horizontalStack=0;resizeParent=1;resizeParentMax=0;resizeLast=0;collapsible=0;marginBottom=0;" vertex="1" parent="1">
          <mxGeometry x="733" y="1628" width="508" height="112.625" as="geometry" />
        </mxCell>
        <mxCell id="v2Jn4lbNKc6R1VwB_rYv-166" style="line;strokeWidth=1;fillColor=none;align=left;verticalAlign=middle;spacingTop=-1;spacingLeft=3;spacingRight=3;rotatable=0;labelPosition=right;points=[];portConstraint=eastwest;strokeColor=inherit;" vertex="1" parent="v2Jn4lbNKc6R1VwB_rYv-165">
          <mxGeometry y="44.625" width="508" height="8" as="geometry" />
        </mxCell>
        <mxCell id="v2Jn4lbNKc6R1VwB_rYv-167" value="+Subscribe(taskID: string, domain: Domain) : : chan TaskEvent, error" style="text;strokeColor=none;fillColor=none;align=left;verticalAlign=top;spacingLeft=4;spacingRight=4;overflow=hidden;rotatable=0;points=[[0,0.5],[1,0.5]];portConstraint=eastwest;" vertex="1" parent="v2Jn4lbNKc6R1VwB_rYv-165">
          <mxGeometry y="52.625" width="508" height="30" as="geometry" />
        </mxCell>
        <mxCell id="v2Jn4lbNKc6R1VwB_rYv-168" value="+Publish(event: TaskEvent) : : error" style="text;strokeColor=none;fillColor=none;align=left;verticalAlign=top;spacingLeft=4;spacingRight=4;overflow=hidden;rotatable=0;points=[[0,0.5],[1,0.5]];portConstraint=eastwest;" vertex="1" parent="v2Jn4lbNKc6R1VwB_rYv-165">
          <mxGeometry y="82.625" width="508" height="30" as="geometry" />
        </mxCell>
        <mxCell id="v2Jn4lbNKc6R1VwB_rYv-169" value="&lt;&lt;interface&gt;&gt;&#xa;TaskScheduler" style="swimlane;fontStyle=1;align=center;verticalAlign=top;childLayout=stackLayout;horizontal=1;startSize=44.625;horizontalStack=0;resizeParent=1;resizeParentMax=0;resizeLast=0;collapsible=0;marginBottom=0;" vertex="1" parent="1">
          <mxGeometry x="1347" y="1382" width="471" height="112.625" as="geometry" />
        </mxCell>
        <mxCell id="v2Jn4lbNKc6R1VwB_rYv-170" style="line;strokeWidth=1;fillColor=none;align=left;verticalAlign=middle;spacingTop=-1;spacingLeft=3;spacingRight=3;rotatable=0;labelPosition=right;points=[];portConstraint=eastwest;strokeColor=inherit;" vertex="1" parent="v2Jn4lbNKc6R1VwB_rYv-169">
          <mxGeometry y="44.625" width="471" height="8" as="geometry" />
        </mxCell>
        <mxCell id="v2Jn4lbNKc6R1VwB_rYv-171" value="+ScheduleTask(task: DevOpsTask) : : error" style="text;strokeColor=none;fillColor=none;align=left;verticalAlign=top;spacingLeft=4;spacingRight=4;overflow=hidden;rotatable=0;points=[[0,0.5],[1,0.5]];portConstraint=eastwest;" vertex="1" parent="v2Jn4lbNKc6R1VwB_rYv-169">
          <mxGeometry y="52.625" width="471" height="30" as="geometry" />
        </mxCell>
        <mxCell id="v2Jn4lbNKc6R1VwB_rYv-172" value="+CancelScheduledTask(taskID: string, domain: Domain) : : error" style="text;strokeColor=none;fillColor=none;align=left;verticalAlign=top;spacingLeft=4;spacingRight=4;overflow=hidden;rotatable=0;points=[[0,0.5],[1,0.5]];portConstraint=eastwest;" vertex="1" parent="v2Jn4lbNKc6R1VwB_rYv-169">
          <mxGeometry y="82.625" width="471" height="30" as="geometry" />
        </mxCell>
        <mxCell id="v2Jn4lbNKc6R1VwB_rYv-173" value="&lt;&lt;interface&gt;&gt;&#xa;WorkerConfig" style="swimlane;fontStyle=1;align=center;verticalAlign=top;childLayout=stackLayout;horizontal=1;startSize=48;horizontalStack=0;resizeParent=1;resizeParentMax=0;resizeLast=0;collapsible=0;marginBottom=0;" vertex="1" parent="1">
          <mxGeometry x="1788" y="450" width="281" height="88" as="geometry" />
        </mxCell>
        <mxCell id="v2Jn4lbNKc6R1VwB_rYv-174" style="line;strokeWidth=1;fillColor=none;align=left;verticalAlign=middle;spacingTop=-1;spacingLeft=3;spacingRight=3;rotatable=0;labelPosition=right;points=[];portConstraint=eastwest;strokeColor=inherit;" vertex="1" parent="v2Jn4lbNKc6R1VwB_rYv-173">
          <mxGeometry y="48" width="281" height="8" as="geometry" />
        </mxCell>
        <mxCell id="v2Jn4lbNKc6R1VwB_rYv-175" value="+GetConfig() : : map[string]interface" style="text;strokeColor=none;fillColor=none;align=left;verticalAlign=top;spacingLeft=4;spacingRight=4;overflow=hidden;rotatable=0;points=[[0,0.5],[1,0.5]];portConstraint=eastwest;" vertex="1" parent="v2Jn4lbNKc6R1VwB_rYv-173">
          <mxGeometry y="56" width="281" height="32" as="geometry" />
        </mxCell>
        <mxCell id="v2Jn4lbNKc6R1VwB_rYv-176" value="" style="curved=1;startArrow=diamondThin;startSize=14;startFill=1;endArrow=none;exitX=0;exitY=0.58;entryX=0.5;entryY=0;rounded=0;" edge="1" parent="1" source="v2Jn4lbNKc6R1VwB_rYv-1" target="v2Jn4lbNKc6R1VwB_rYv-22">
          <mxGeometry relative="1" as="geometry">
            <Array as="points">
              <mxPoint x="357" y="379" />
            </Array>
          </mxGeometry>
        </mxCell>
        <mxCell id="v2Jn4lbNKc6R1VwB_rYv-177" value="" style="curved=1;startArrow=diamondThin;startSize=14;startFill=1;endArrow=none;exitX=0;exitY=0.62;entryX=0.5;entryY=0;rounded=0;" edge="1" parent="1" source="v2Jn4lbNKc6R1VwB_rYv-1" target="v2Jn4lbNKc6R1VwB_rYv-25">
          <mxGeometry relative="1" as="geometry">
            <Array as="points">
              <mxPoint x="634" y="379" />
            </Array>
          </mxGeometry>
        </mxCell>
        <mxCell id="v2Jn4lbNKc6R1VwB_rYv-178" value="" style="curved=1;startArrow=diamondThin;startSize=14;startFill=1;endArrow=none;exitX=0.5;exitY=1;entryX=0.5;entryY=0;rounded=0;" edge="1" parent="1" source="v2Jn4lbNKc6R1VwB_rYv-25" target="v2Jn4lbNKc6R1VwB_rYv-15">
          <mxGeometry relative="1" as="geometry">
            <Array as="points" />
          </mxGeometry>
        </mxCell>
        <mxCell id="v2Jn4lbNKc6R1VwB_rYv-179" value="" style="curved=1;startArrow=diamondThin;startSize=14;startFill=1;endArrow=none;exitX=0.5;exitY=1;entryX=0.5;entryY=0;rounded=0;" edge="1" parent="1" source="v2Jn4lbNKc6R1VwB_rYv-33" target="v2Jn4lbNKc6R1VwB_rYv-39">
          <mxGeometry relative="1" as="geometry">
            <Array as="points" />
          </mxGeometry>
        </mxCell>
        <mxCell id="v2Jn4lbNKc6R1VwB_rYv-180" value="" style="curved=1;startArrow=diamondThin;startSize=14;startFill=1;endArrow=none;exitX=0;exitY=0.69;entryX=0.5;entryY=0;rounded=0;" edge="1" parent="1" source="v2Jn4lbNKc6R1VwB_rYv-1" target="v2Jn4lbNKc6R1VwB_rYv-46">
          <mxGeometry relative="1" as="geometry">
            <Array as="points">
              <mxPoint x="832" y="379" />
            </Array>
          </mxGeometry>
        </mxCell>
        <mxCell id="v2Jn4lbNKc6R1VwB_rYv-181" value="" style="curved=1;startArrow=diamondThin;startSize=14;startFill=1;endArrow=none;exitX=0.05;exitY=1;entryX=0.5;entryY=0;rounded=0;" edge="1" parent="1" source="v2Jn4lbNKc6R1VwB_rYv-1" target="v2Jn4lbNKc6R1VwB_rYv-52">
          <mxGeometry relative="1" as="geometry">
            <Array as="points">
              <mxPoint x="1044" y="379" />
            </Array>
          </mxGeometry>
        </mxCell>
        <mxCell id="v2Jn4lbNKc6R1VwB_rYv-182" value="" style="curved=1;startArrow=diamondThin;startSize=14;startFill=1;endArrow=none;exitX=0.95;exitY=1;entryX=0.5;entryY=0;rounded=0;" edge="1" parent="1" source="v2Jn4lbNKc6R1VwB_rYv-1" target="v2Jn4lbNKc6R1VwB_rYv-58">
          <mxGeometry relative="1" as="geometry">
            <Array as="points">
              <mxPoint x="1271" y="379" />
            </Array>
          </mxGeometry>
        </mxCell>
        <mxCell id="v2Jn4lbNKc6R1VwB_rYv-183" value="" style="curved=1;startArrow=diamondThin;startSize=14;startFill=1;endArrow=none;exitX=1;exitY=0.69;entryX=0.5;entryY=-0.01;rounded=0;" edge="1" parent="1" source="v2Jn4lbNKc6R1VwB_rYv-1" target="v2Jn4lbNKc6R1VwB_rYv-61">
          <mxGeometry relative="1" as="geometry">
            <Array as="points">
              <mxPoint x="1488" y="379" />
            </Array>
          </mxGeometry>
        </mxCell>
        <mxCell id="v2Jn4lbNKc6R1VwB_rYv-184" value="" style="curved=1;startArrow=diamondThin;startSize=14;startFill=1;endArrow=none;exitX=1;exitY=0.62;entryX=0.5;entryY=0;rounded=0;" edge="1" parent="1" source="v2Jn4lbNKc6R1VwB_rYv-1" target="v2Jn4lbNKc6R1VwB_rYv-64">
          <mxGeometry relative="1" as="geometry">
            <Array as="points">
              <mxPoint x="1683" y="379" />
            </Array>
          </mxGeometry>
        </mxCell>
        <mxCell id="v2Jn4lbNKc6R1VwB_rYv-185" value="" style="curved=1;startArrow=diamondThin;startSize=14;startFill=1;endArrow=none;exitX=0.5;exitY=1;entryX=0.5;entryY=0;rounded=0;" edge="1" parent="1" source="v2Jn4lbNKc6R1VwB_rYv-68" target="v2Jn4lbNKc6R1VwB_rYv-73">
          <mxGeometry relative="1" as="geometry">
            <Array as="points" />
          </mxGeometry>
        </mxCell>
        <mxCell id="v2Jn4lbNKc6R1VwB_rYv-186" value="" style="curved=1;startArrow=diamondThin;startSize=14;startFill=1;endArrow=none;exitX=0.5;exitY=1;entryX=0.5;entryY=0;rounded=0;" edge="1" parent="1" source="v2Jn4lbNKc6R1VwB_rYv-73" target="v2Jn4lbNKc6R1VwB_rYv-78">
          <mxGeometry relative="1" as="geometry">
            <Array as="points" />
          </mxGeometry>
        </mxCell>
        <mxCell id="v2Jn4lbNKc6R1VwB_rYv-187" value="" style="curved=1;startArrow=diamondThin;startSize=14;startFill=1;endArrow=none;exitX=0.5;exitY=1;entryX=0.5;entryY=0;rounded=0;" edge="1" parent="1" source="v2Jn4lbNKc6R1VwB_rYv-86" target="v2Jn4lbNKc6R1VwB_rYv-68">
          <mxGeometry relative="1" as="geometry">
            <Array as="points" />
          </mxGeometry>
        </mxCell>
        <mxCell id="v2Jn4lbNKc6R1VwB_rYv-188" value="" style="curved=1;startArrow=diamondThin;startSize=14;startFill=1;endArrow=none;exitX=0.89;exitY=1;entryX=0.11;entryY=0;rounded=0;" edge="1" parent="1" source="v2Jn4lbNKc6R1VwB_rYv-86" target="v2Jn4lbNKc6R1VwB_rYv-99">
          <mxGeometry relative="1" as="geometry">
            <Array as="points">
              <mxPoint x="2333" y="379" />
            </Array>
          </mxGeometry>
        </mxCell>
        <mxCell id="v2Jn4lbNKc6R1VwB_rYv-189" value="" style="curved=1;startArrow=diamondThin;startSize=14;startFill=1;endArrow=none;exitX=0.22;exitY=1;entryX=0;entryY=0.21;rounded=0;" edge="1" parent="1" source="v2Jn4lbNKc6R1VwB_rYv-93" target="v2Jn4lbNKc6R1VwB_rYv-126">
          <mxGeometry relative="1" as="geometry">
            <Array as="points">
              <mxPoint x="2504" y="304" />
            </Array>
          </mxGeometry>
        </mxCell>
        <mxCell id="v2Jn4lbNKc6R1VwB_rYv-190" value="" style="curved=1;startArrow=diamondThin;startSize=14;startFill=1;endArrow=none;exitX=0.5;exitY=1;entryX=1;entryY=0.26;rounded=0;exitDx=0;exitDy=0;" edge="1" parent="1" source="v2Jn4lbNKc6R1VwB_rYv-102" target="v2Jn4lbNKc6R1VwB_rYv-99">
          <mxGeometry relative="1" as="geometry">
            <Array as="points" />
          </mxGeometry>
        </mxCell>
        <mxCell id="v2Jn4lbNKc6R1VwB_rYv-191" value="" style="curved=1;dashed=1;startArrow=none;endArrow=block;endSize=16;endFill=0;exitX=0.35;exitY=1;entryX=0.5;entryY=0;rounded=0;" edge="1" parent="1" source="v2Jn4lbNKc6R1VwB_rYv-99" target="v2Jn4lbNKc6R1VwB_rYv-107">
          <mxGeometry relative="1" as="geometry">
            <Array as="points">
              <mxPoint x="2451" y="625" />
            </Array>
          </mxGeometry>
        </mxCell>
        <mxCell id="v2Jn4lbNKc6R1VwB_rYv-192" value="" style="curved=1;dashed=1;startArrow=none;endArrow=block;endSize=16;endFill=0;exitX=0.64;exitY=1;entryX=0.562;entryY=0.008;rounded=0;entryDx=0;entryDy=0;entryPerimeter=0;" edge="1" parent="1" source="v2Jn4lbNKc6R1VwB_rYv-99" target="v2Jn4lbNKc6R1VwB_rYv-114">
          <mxGeometry relative="1" as="geometry">
            <Array as="points">
              <mxPoint x="2661" y="614" />
              <mxPoint x="2722" y="611" />
            </Array>
          </mxGeometry>
        </mxCell>
        <mxCell id="v2Jn4lbNKc6R1VwB_rYv-193" value="" style="curved=1;dashed=1;startArrow=none;endArrow=block;endSize=16;endFill=0;exitX=1;exitY=0.68;entryX=0.5;entryY=0;rounded=0;" edge="1" parent="1" source="v2Jn4lbNKc6R1VwB_rYv-99" target="v2Jn4lbNKc6R1VwB_rYv-120">
          <mxGeometry relative="1" as="geometry">
            <Array as="points">
              <mxPoint x="2837" y="573" />
              <mxPoint x="2935" y="591" />
              <mxPoint x="2989" y="608" />
            </Array>
          </mxGeometry>
        </mxCell>
        <mxCell id="v2Jn4lbNKc6R1VwB_rYv-194" value="" style="curved=1;startArrow=diamondThin;startSize=14;startFill=1;endArrow=none;exitX=1;exitY=0.5;entryX=0;entryY=0.08;rounded=0;exitDx=0;exitDy=0;" edge="1" parent="1" source="v2Jn4lbNKc6R1VwB_rYv-109" target="v2Jn4lbNKc6R1VwB_rYv-114">
          <mxGeometry relative="1" as="geometry">
            <Array as="points">
              <mxPoint x="2577" y="720" />
            </Array>
          </mxGeometry>
        </mxCell>
        <mxCell id="v2Jn4lbNKc6R1VwB_rYv-195" value="" style="curved=1;startArrow=diamondThin;startSize=14;startFill=1;endArrow=none;exitX=0;exitY=0.5;rounded=0;exitDx=0;exitDy=0;" edge="1" parent="1" source="v2Jn4lbNKc6R1VwB_rYv-116">
          <mxGeometry relative="1" as="geometry">
            <Array as="points" />
            <mxPoint x="2558" y="769" as="targetPoint" />
          </mxGeometry>
        </mxCell>
        <mxCell id="v2Jn4lbNKc6R1VwB_rYv-196" value="" style="curved=1;dashed=1;startArrow=none;endArrow=open;endSize=12;exitX=0.22;exitY=1;entryX=0.5;entryY=0;rounded=0;" edge="1" parent="1" source="v2Jn4lbNKc6R1VwB_rYv-143" target="v2Jn4lbNKc6R1VwB_rYv-131">
          <mxGeometry relative="1" as="geometry">
            <Array as="points">
              <mxPoint x="372" y="1322" />
            </Array>
          </mxGeometry>
        </mxCell>
        <mxCell id="v2Jn4lbNKc6R1VwB_rYv-197" value="" style="curved=1;dashed=1;startArrow=none;endArrow=open;endSize=12;exitX=0.53;exitY=1;entryX=0.5;entryY=0;rounded=0;" edge="1" parent="1" source="v2Jn4lbNKc6R1VwB_rYv-143" target="v2Jn4lbNKc6R1VwB_rYv-162">
          <mxGeometry relative="1" as="geometry">
            <Array as="points">
              <mxPoint x="986" y="1322" />
            </Array>
          </mxGeometry>
        </mxCell>
        <mxCell id="v2Jn4lbNKc6R1VwB_rYv-198" value="" style="curved=1;dashed=1;startArrow=none;endArrow=open;endSize=12;exitX=0.84;exitY=1;entryX=0.5;entryY=0;rounded=0;" edge="1" parent="1" source="v2Jn4lbNKc6R1VwB_rYv-143" target="v2Jn4lbNKc6R1VwB_rYv-169">
          <mxGeometry relative="1" as="geometry">
            <Array as="points">
              <mxPoint x="1583" y="1322" />
            </Array>
          </mxGeometry>
        </mxCell>
        <mxCell id="v2Jn4lbNKc6R1VwB_rYv-199" value="" style="curved=1;dashed=1;startArrow=none;endArrow=open;endSize=12;exitX=0.5;exitY=1;entryX=0.5;entryY=0;rounded=0;" edge="1" parent="1" source="v2Jn4lbNKc6R1VwB_rYv-162" target="v2Jn4lbNKc6R1VwB_rYv-165">
          <mxGeometry relative="1" as="geometry">
            <Array as="points" />
          </mxGeometry>
        </mxCell>
        <mxCell id="v2Jn4lbNKc6R1VwB_rYv-200" value="" style="curved=1;startArrow=diamondThin;startSize=14;startFill=1;endArrow=none;exitX=1;exitY=0.58;entryX=0.5;entryY=0;rounded=0;" edge="1" parent="1" source="v2Jn4lbNKc6R1VwB_rYv-1" target="v2Jn4lbNKc6R1VwB_rYv-173">
          <mxGeometry relative="1" as="geometry">
            <Array as="points">
              <mxPoint x="1929" y="379" />
            </Array>
          </mxGeometry>
        </mxCell>
        <mxCell id="v2Jn4lbNKc6R1VwB_rYv-201" value="" style="curved=1;startArrow=diamondThin;startSize=14;startFill=1;endArrow=none;exitX=1;exitY=0.83;entryX=0;entryY=0.25;rounded=0;entryDx=0;entryDy=0;" edge="1" parent="1" source="v2Jn4lbNKc6R1VwB_rYv-93" target="v2Jn4lbNKc6R1VwB_rYv-102">
          <mxGeometry relative="1" as="geometry">
            <Array as="points">
              <mxPoint x="2828" y="220" />
            </Array>
            <mxPoint x="2711" y="176" as="sourcePoint" />
            <mxPoint x="2620" y="473" as="targetPoint" />
          </mxGeometry>
        </mxCell>
        <mxCell id="v2Jn4lbNKc6R1VwB_rYv-102" value="&lt;&lt;enumeration&gt;&gt;&#xa;SubjectKind" style="swimlane;fontStyle=1;align=center;verticalAlign=top;childLayout=stackLayout;horizontal=1;startSize=42.599999999999994;horizontalStack=0;resizeParent=1;resizeParentMax=0;resizeLast=0;collapsible=0;marginBottom=0;" vertex="1" parent="1">
          <mxGeometry x="2885" y="199.82000000000002" width="142" height="140.6" as="geometry" />
        </mxCell>
        <mxCell id="v2Jn4lbNKc6R1VwB_rYv-103" value="USER" style="text;strokeColor=none;fillColor=none;align=left;verticalAlign=top;spacingLeft=4;spacingRight=4;overflow=hidden;rotatable=0;points=[[0,0.5],[1,0.5]];portConstraint=eastwest;" vertex="1" parent="v2Jn4lbNKc6R1VwB_rYv-102">
          <mxGeometry y="42.599999999999994" width="142" height="28" as="geometry" />
        </mxCell>
        <mxCell id="v2Jn4lbNKc6R1VwB_rYv-104" value="GROUP" style="text;strokeColor=none;fillColor=none;align=left;verticalAlign=top;spacingLeft=4;spacingRight=4;overflow=hidden;rotatable=0;points=[[0,0.5],[1,0.5]];portConstraint=eastwest;" vertex="1" parent="v2Jn4lbNKc6R1VwB_rYv-102">
          <mxGeometry y="70.6" width="142" height="28" as="geometry" />
        </mxCell>
        <mxCell id="v2Jn4lbNKc6R1VwB_rYv-105" value="SERVICEACCOUNT" style="text;strokeColor=none;fillColor=none;align=left;verticalAlign=top;spacingLeft=4;spacingRight=4;overflow=hidden;rotatable=0;points=[[0,0.5],[1,0.5]];portConstraint=eastwest;" vertex="1" parent="v2Jn4lbNKc6R1VwB_rYv-102">
          <mxGeometry y="98.6" width="142" height="28" as="geometry" />
        </mxCell>
        <mxCell id="v2Jn4lbNKc6R1VwB_rYv-106" style="line;strokeWidth=1;fillColor=none;align=left;verticalAlign=middle;spacingTop=-1;spacingLeft=3;spacingRight=3;rotatable=0;labelPosition=right;points=[];portConstraint=eastwest;strokeColor=inherit;" vertex="1" parent="v2Jn4lbNKc6R1VwB_rYv-102">
          <mxGeometry y="126.6" width="142" height="14" as="geometry" />
        </mxCell>
        <UserObject label="" plantUmlData="{&#xa;  &quot;data&quot;: &quot;@startuml\nleft to right direction\n\nactor Usuario\nactor Administrador\n\nrectangle \&quot;GestiÃ³n de Tareas\&quot; {\n    usecase \&quot;Crear Tarea\&quot; as UC1\n    usecase \&quot;Actualizar Tarea\&quot; as UC2\n    usecase \&quot;Eliminar Tarea\&quot; as UC3\n    usecase \&quot;Obtener Tarea\&quot; as UC4\n    usecase \&quot;Obtener Tareas\&quot; as UC5\n    usecase \&quot;Ejecutar Tarea\&quot; as UC6\n    usecase \&quot;Cancelar Tarea\&quot; as UC7\n    usecase \&quot;Suscribirse a Eventos de Tarea\&quot; as UC8\n}\n\nrectangle \&quot;GestiÃ³n de Dominios y Permisos\&quot; {\n    usecase \&quot;Crear Dominio\&quot; as UC9\n    usecase \&quot;Crear Rol\&quot; as UC10\n    usecase \&quot;Crear Rol de Dominio\&quot; as UC11\n    usecase \&quot;Crear RolBinding\&quot; as UC12\n    usecase \&quot;Crear RolBindingDeDominio\&quot; as UC13\n}\n\nUsuario --&gt; UC1\nUsuario --&gt; UC2\nUsuario --&gt; UC3\nUsuario --&gt; UC4\nUsuario --&gt; UC5\nUsuario --&gt; UC6\nUsuario --&gt; UC7\nUsuario --&gt; UC8\n\nAdministrador --&gt; UC9\nAdministrador --&gt; UC10\nAdministrador --&gt; UC11\nAdministrador --&gt; UC12\nAdministrador --&gt; UC13\n\n@enduml&quot;,&#xa;  &quot;format&quot;: &quot;svg&quot;&#xa;}" id="v2Jn4lbNKc6R1VwB_rYv-202">
          <mxCell style="shape=image;noLabel=1;verticalAlign=top;aspect=fixed;imageAspect=0;image=data:image/svg+xml,PD94bWwgdmVyc2lvbj0iMS4wIiBlbmNvZGluZz0idXMtYXNjaWkiIHN0YW5kYWxvbmU9Im5vIj8+PHN2ZyB4bWxucz0iaHR0cDovL3d3dy53My5vcmcvMjAwMC9zdmciIHhtbG5zOnhsaW5rPSJodHRwOi8vd3d3LnczLm9yZy8xOTk5L3hsaW5rIiBjb250ZW50U3R5bGVUeXBlPSJ0ZXh0L2NzcyIgaGVpZ2h0PSI5ODNweCIgcHJlc2VydmVBc3BlY3RSYXRpbz0ibm9uZSIgc3R5bGU9IndpZHRoOjQyMHB4O2hlaWdodDo5ODNweDtiYWNrZ3JvdW5kOiNGRkZGRkY7IiB2ZXJzaW9uPSIxLjEiIHZpZXdCb3g9IjAgMCA0MjAgOTgzIiB3aWR0aD0iNDIwcHgiIHpvb21BbmRQYW49Im1hZ25pZnkiPjxkZWZzLz48Zz48IS0tY2x1c3RlciBHZXN0aT9uIGRlIFRhcmVhcy0tPjxnIGlkPSJjbHVzdGVyX0dlc3RpJiMyNDM7biBkZSBUYXJlYXMiPjxyZWN0IGZpbGw9Im5vbmUiIGhlaWdodD0iNTc1IiByeD0iMi41IiByeT0iMi41IiBzdHlsZT0ic3Ryb2tlOiMxODE4MTg7c3Ryb2tlLXdpZHRoOjEuMDsiIHdpZHRoPSIyNzIiIHg9IjE0MiIgeT0iNDAyIi8+PHRleHQgZmlsbD0iIzAwMDAwMCIgZm9udC1mYW1pbHk9InNhbnMtc2VyaWYiIGZvbnQtc2l6ZT0iMTQiIGZvbnQtd2VpZ2h0PSJib2xkIiBsZW5ndGhBZGp1c3Q9InNwYWNpbmciIHRleHRMZW5ndGg9IjExOSIgeD0iMjE4LjUiIHk9IjQxNy4yMzQ0Ij5HZXN0aSYjMjQzO24gZGUgVGFyZWFzPC90ZXh0PjwvZz48IS0tY2x1c3RlciBHZXN0aT9uIGRlIERvbWluaW9zIHkgUGVybWlzb3MtLT48ZyBpZD0iY2x1c3Rlcl9HZXN0aSYjMjQzO24gZGUgRG9taW5pb3MgeSBQZXJtaXNvcyI+PHJlY3QgZmlsbD0ibm9uZSIgaGVpZ2h0PSIzNzEiIHJ4PSIyLjUiIHJ5PSIyLjUiIHN0eWxlPSJzdHJva2U6IzE4MTgxODtzdHJva2Utd2lkdGg6MS4wOyIgd2lkdGg9IjI0MCIgeD0iMTU4IiB5PSI3Ii8+PHRleHQgZmlsbD0iIzAwMDAwMCIgZm9udC1mYW1pbHk9InNhbnMtc2VyaWYiIGZvbnQtc2l6ZT0iMTQiIGZvbnQtd2VpZ2h0PSJib2xkIiBsZW5ndGhBZGp1c3Q9InNwYWNpbmciIHRleHRMZW5ndGg9IjIxMiIgeD0iMTcyIiB5PSIyMi4yMzQ0Ij5HZXN0aSYjMjQzO24gZGUgRG9taW5pb3MgeSBQZXJtaXNvczwvdGV4dD48L2c+PGcgaWQ9ImVsZW1fVUMxIj48ZWxsaXBzZSBjeD0iMjc4LjE2ODUiIGN5PSI0NTAuMTMzNyIgZmlsbD0iI0YxRjFGMSIgcng9IjYxLjE2ODUiIHJ5PSIxNC42MzM3IiBzdHlsZT0ic3Ryb2tlOiMxODE4MTg7c3Ryb2tlLXdpZHRoOjAuNTsiLz48dGV4dCBmaWxsPSIjMDAwMDAwIiBmb250LWZhbWlseT0ic2Fucy1zZXJpZiIgZm9udC1zaXplPSIxNCIgbGVuZ3RoQWRqdXN0PSJzcGFjaW5nIiB0ZXh0TGVuZ3RoPSI3NyIgeD0iMjM5LjY2ODUiIHk9IjQ1My44NzU5Ij5DcmVhciBUYXJlYTwvdGV4dD48L2c+PGcgaWQ9ImVsZW1fVUMyIj48ZWxsaXBzZSBjeD0iMjc3LjkzODQiIGN5PSI1MTYuOTg3NyIgZmlsbD0iI0YxRjFGMSIgcng9Ijc1LjQzODQiIHJ5PSIxNy40ODc3IiBzdHlsZT0ic3Ryb2tlOiMxODE4MTg7c3Ryb2tlLXdpZHRoOjAuNTsiLz48dGV4dCBmaWxsPSIjMDAwMDAwIiBmb250LWZhbWlseT0ic2Fucy1zZXJpZiIgZm9udC1zaXplPSIxNCIgbGVuZ3RoQWRqdXN0PSJzcGFjaW5nIiB0ZXh0TGVuZ3RoPSIxMTIiIHg9IjIyMS45Mzg0IiB5PSI1MjAuNzI5OSI+QWN0dWFsaXphciBUYXJlYTwvdGV4dD48L2c+PGcgaWQ9ImVsZW1fVUMzIj48ZWxsaXBzZSBjeD0iMjc3Ljk1OTUiIGN5PSI1ODUuODkxOSIgZmlsbD0iI0YxRjFGMSIgcng9IjY5Ljk1OTUiIHJ5PSIxNi4zOTE5IiBzdHlsZT0ic3Ryb2tlOiMxODE4MTg7c3Ryb2tlLXdpZHRoOjAuNTsiLz48dGV4dCBmaWxsPSIjMDAwMDAwIiBmb250LWZhbWlseT0ic2Fucy1zZXJpZiIgZm9udC1zaXplPSIxNCIgbGVuZ3RoQWRqdXN0PSJzcGFjaW5nIiB0ZXh0TGVuZ3RoPSI5OSIgeD0iMjI4LjQ1OTUiIHk9IjU4OS42MzQxIj5FbGltaW5hciBUYXJlYTwvdGV4dD48L2c+PGcgaWQ9ImVsZW1fVUM0Ij48ZWxsaXBzZSBjeD0iMjc4LjE4MzQiIGN5PSI2NTMuMjM2NyIgZmlsbD0iI0YxRjFGMSIgcng9IjY2LjY4MzQiIHJ5PSIxNS43MzY3IiBzdHlsZT0ic3Ryb2tlOiMxODE4MTg7c3Ryb2tlLXdpZHRoOjAuNTsiLz48dGV4dCBmaWxsPSIjMDAwMDAwIiBmb250LWZhbWlseT0ic2Fucy1zZXJpZiIgZm9udC1zaXplPSIxNCIgbGVuZ3RoQWRqdXN0PSJzcGFjaW5nIiB0ZXh0TGVuZ3RoPSI5MSIgeD0iMjMyLjY4MzQiIHk9IjY1Ni45Nzg5Ij5PYnRlbmVyIFRhcmVhPC90ZXh0PjwvZz48ZyBpZD0iZWxlbV9VQzUiPjxlbGxpcHNlIGN4PSIyNzguMDQ1NiIgY3k9IjcxOS44MDkxIiBmaWxsPSIjRjFGMUYxIiByeD0iNjkuNTQ1NiIgcnk9IjE2LjMwOTEiIHN0eWxlPSJzdHJva2U6IzE4MTgxODtzdHJva2Utd2lkdGg6MC41OyIvPjx0ZXh0IGZpbGw9IiMwMDAwMDAiIGZvbnQtZmFtaWx5PSJzYW5zLXNlcmlmIiBmb250LXNpemU9IjE0IiBsZW5ndGhBZGp1c3Q9InNwYWNpbmciIHRleHRMZW5ndGg9Ijk4IiB4PSIyMjkuMDQ1NiIgeT0iNzIzLjU1MTMiPk9idGVuZXIgVGFyZWFzPC90ZXh0PjwvZz48ZyBpZD0iZWxlbV9VQzYiPjxlbGxpcHNlIGN4PSIyNzguMDQ1NiIgY3k9Ijc4Ny44MDkxIiBmaWxsPSIjRjFGMUYxIiByeD0iNjkuNTQ1NiIgcnk9IjE2LjMwOTEiIHN0eWxlPSJzdHJva2U6IzE4MTgxODtzdHJva2Utd2lkdGg6MC41OyIvPjx0ZXh0IGZpbGw9IiMwMDAwMDAiIGZvbnQtZmFtaWx5PSJzYW5zLXNlcmlmIiBmb250LXNpemU9IjE0IiBsZW5ndGhBZGp1c3Q9InNwYWNpbmciIHRleHRMZW5ndGg9Ijk4IiB4PSIyMjkuMDQ1NiIgeT0iNzkxLjU1MTMiPkVqZWN1dGFyIFRhcmVhPC90ZXh0PjwvZz48ZyBpZD0iZWxlbV9VQzciPjxlbGxpcHNlIGN4PSIyNzguMDQ1NiIgY3k9Ijg1NS44MDkxIiBmaWxsPSIjRjFGMUYxIiByeD0iNjkuNTQ1NiIgcnk9IjE2LjMwOTEiIHN0eWxlPSJzdHJva2U6IzE4MTgxODtzdHJva2Utd2lkdGg6MC41OyIvPjx0ZXh0IGZpbGw9IiMwMDAwMDAiIGZvbnQtZmFtaWx5PSJzYW5zLXNlcmlmIiBmb250LXNpemU9IjE0IiBsZW5ndGhBZGp1c3Q9InNwYWNpbmciIHRleHRMZW5ndGg9Ijk4IiB4PSIyMjkuMDQ1NiIgeT0iODU5LjU1MTMiPkNhbmNlbGFyIFRhcmVhPC90ZXh0PjwvZz48ZyBpZD0iZWxlbV9VQzgiPjxlbGxpcHNlIGN4PSIyNzguMTUwOSIgY3k9IjkzMy45MzAyIiBmaWxsPSIjRjFGMUYxIiByeD0iMTIwLjE1MDkiIHJ5PSIyNi40MzAyIiBzdHlsZT0ic3Ryb2tlOiMxODE4MTg7c3Ryb2tlLXdpZHRoOjAuNTsiLz48dGV4dCBmaWxsPSIjMDAwMDAwIiBmb250LWZhbWlseT0ic2Fucy1zZXJpZiIgZm9udC1zaXplPSIxNCIgbGVuZ3RoQWRqdXN0PSJzcGFjaW5nIiB0ZXh0TGVuZ3RoPSIyMTAiIHg9IjE3My4xNTA5IiB5PSI5MzcuNjcyNCI+U3VzY3JpYmlyc2UgYSBFdmVudG9zIGRlIFRhcmVhPC90ZXh0PjwvZz48ZyBpZD0iZWxlbV9VQzkiPjxlbGxpcHNlIGN4PSIyNzguMDg4NCIgY3k9IjU1LjgxNzciIGZpbGw9IiNGMUYxRjEiIHJ4PSI2Ny4wODg0IiByeT0iMTUuODE3NyIgc3R5bGU9InN0cm9rZTojMTgxODE4O3N0cm9rZS13aWR0aDowLjU7Ii8+PHRleHQgZmlsbD0iIzAwMDAwMCIgZm9udC1mYW1pbHk9InNhbnMtc2VyaWYiIGZvbnQtc2l6ZT0iMTQiIGxlbmd0aEFkanVzdD0ic3BhY2luZyIgdGV4dExlbmd0aD0iOTIiIHg9IjIzMi4wODg0IiB5PSI1OS41NTk5Ij5DcmVhciBEb21pbmlvPC90ZXh0PjwvZz48ZyBpZD0iZWxlbV9VQzEwIj48ZWxsaXBzZSBjeD0iMjc4LjAwNTQiIGN5PSIxMjEuMTAxMSIgZmlsbD0iI0YxRjFGMSIgcng9IjU2LjAwNTQiIHJ5PSIxMy42MDExIiBzdHlsZT0ic3Ryb2tlOiMxODE4MTg7c3Ryb2tlLXdpZHRoOjAuNTsiLz48dGV4dCBmaWxsPSIjMDAwMDAwIiBmb250LWZhbWlseT0ic2Fucy1zZXJpZiIgZm9udC1zaXplPSIxNCIgbGVuZ3RoQWRqdXN0PSJzcGFjaW5nIiB0ZXh0TGVuZ3RoPSI2MyIgeD0iMjQ2LjUwNTQiIHk9IjEyNC44NDMzIj5DcmVhciBSb2w8L3RleHQ+PC9nPjxnIGlkPSJlbGVtX1VDMTEiPjxlbGxpcHNlIGN4PSIyNzguMTc5NiIgY3k9IjE5MC4wMzU5IiBmaWxsPSIjRjFGMUYxIiByeD0iODguMTc5NiIgcnk9IjIwLjAzNTkiIHN0eWxlPSJzdHJva2U6IzE4MTgxODtzdHJva2Utd2lkdGg6MC41OyIvPjx0ZXh0IGZpbGw9IiMwMDAwMDAiIGZvbnQtZmFtaWx5PSJzYW5zLXNlcmlmIiBmb250LXNpemU9IjE0IiBsZW5ndGhBZGp1c3Q9InNwYWNpbmciIHRleHRMZW5ndGg9IjE0MSIgeD0iMjA3LjY3OTYiIHk9IjE5My43NzgxIj5DcmVhciBSb2wgZGUgRG9taW5pbzwvdGV4dD48L2c+PGcgaWQ9ImVsZW1fVUMxMiI+PGVsbGlwc2UgY3g9IjI3Ny45Mzg0IiBjeT0iMjYyLjk4NzciIGZpbGw9IiNGMUYxRjEiIHJ4PSI3NS40Mzg0IiByeT0iMTcuNDg3NyIgc3R5bGU9InN0cm9rZTojMTgxODE4O3N0cm9rZS13aWR0aDowLjU7Ii8+PHRleHQgZmlsbD0iIzAwMDAwMCIgZm9udC1mYW1pbHk9InNhbnMtc2VyaWYiIGZvbnQtc2l6ZT0iMTQiIGxlbmd0aEFkanVzdD0ic3BhY2luZyIgdGV4dExlbmd0aD0iMTEyIiB4PSIyMjEuOTM4NCIgeT0iMjY2LjcyOTkiPkNyZWFyIFJvbEJpbmRpbmc8L3RleHQ+PC9nPjxnIGlkPSJlbGVtX1VDMTMiPjxlbGxpcHNlIGN4PSIyNzguMTg5NSIgY3k9IjMzOS4yMzc5IiBmaWxsPSIjRjFGMUYxIiByeD0iMTA0LjE4OTUiIHJ5PSIyMy4yMzc5IiBzdHlsZT0ic3Ryb2tlOiMxODE4MTg7c3Ryb2tlLXdpZHRoOjAuNTsiLz48dGV4dCBmaWxsPSIjMDAwMDAwIiBmb250LWZhbWlseT0ic2Fucy1zZXJpZiIgZm9udC1zaXplPSIxNCIgbGVuZ3RoQWRqdXN0PSJzcGFjaW5nIiB0ZXh0TGVuZ3RoPSIxNzYiIHg9IjE5MC4xODk1IiB5PSIzNDIuOTgwMSI+Q3JlYXIgUm9sQmluZGluZ0RlRG9taW5pbzwvdGV4dD48L2c+PCEtLWVudGl0eSBVc3VhcmlvLS0+PGcgaWQ9ImVsZW1fVXN1YXJpbyI+PGVsbGlwc2UgY3g9IjUyIiBjeT0iNjU3IiBmaWxsPSIjRjFGMUYxIiByeD0iOCIgcnk9IjgiIHN0eWxlPSJzdHJva2U6IzE4MTgxODtzdHJva2Utd2lkdGg6MC41OyIvPjxwYXRoIGQ9Ik01Miw2NjUgTDUyLDY5MiBNMzksNjczIEw2NSw2NzMgTTUyLDY5MiBMMzksNzA3IE01Miw2OTIgTDY1LDcwNyAiIGZpbGw9Im5vbmUiIHN0eWxlPSJzdHJva2U6IzE4MTgxODtzdHJva2Utd2lkdGg6MC41OyIvPjx0ZXh0IGZpbGw9IiMwMDAwMDAiIGZvbnQtZmFtaWx5PSJzYW5zLXNlcmlmIiBmb250LXNpemU9IjE0IiBsZW5ndGhBZGp1c3Q9InNwYWNpbmciIHRleHRMZW5ndGg9IjQ5IiB4PSIyNy41IiB5PSI3MjEuNzM0NCI+VXN1YXJpbzwvdGV4dD48L2c+PCEtLWVudGl0eSBBZG1pbmlzdHJhZG9yLS0+PGcgaWQ9ImVsZW1fQWRtaW5pc3RyYWRvciI+PGVsbGlwc2UgY3g9IjUyIiBjeT0iMTYxIiBmaWxsPSIjRjFGMUYxIiByeD0iOCIgcnk9IjgiIHN0eWxlPSJzdHJva2U6IzE4MTgxODtzdHJva2Utd2lkdGg6MC41OyIvPjxwYXRoIGQ9Ik01MiwxNjkgTDUyLDE5NiBNMzksMTc3IEw2NSwxNzcgTTUyLDE5NiBMMzksMjExIE01MiwxOTYgTDY1LDIxMSAiIGZpbGw9Im5vbmUiIHN0eWxlPSJzdHJva2U6IzE4MTgxODtzdHJva2Utd2lkdGg6MC41OyIvPjx0ZXh0IGZpbGw9IiMwMDAwMDAiIGZvbnQtZmFtaWx5PSJzYW5zLXNlcmlmIiBmb250LXNpemU9IjE0IiBsZW5ndGhBZGp1c3Q9InNwYWNpbmciIHRleHRMZW5ndGg9IjkyIiB4PSI2IiB5PSIyMjUuNzM0NCI+QWRtaW5pc3RyYWRvcjwvdGV4dD48L2c+PCEtLWxpbmsgVXN1YXJpbyB0byBVQzEtLT48ZyBpZD0ibGlua19Vc3VhcmlvX1VDMSI+PHBhdGggZD0iTTU3LjM0LDY0OC4yNyBDNjQuNzIsNjAyLjAxIDg0LjE1LDUyNC41NSAxMzQsNDgyIEMxNTYuODMsNDYyLjUxIDE4My4wNDE0LDQ1NC44OTM0IDIxMS4wODE0LDQ1MS41ODM0ICIgZmlsbD0ibm9uZSIgaWQ9IlVzdWFyaW8tdG8tVUMxIiBzdHlsZT0ic3Ryb2tlOiMxODE4MTg7c3Ryb2tlLXdpZHRoOjEuMDsiLz48cG9seWdvbiBmaWxsPSIjMTgxODE4IiBwb2ludHM9IjIxNy4wNCw0NTAuODgsMjA3LjYzMzEsNDQ3Ljk2MjcsMjEyLjA3NDUsNDUxLjQ2NjIsMjA4LjU3MSw0NTUuOTA3NSwyMTcuMDQsNDUwLjg4IiBzdHlsZT0ic3Ryb2tlOiMxODE4MTg7c3Ryb2tlLXdpZHRoOjEuMDsiLz48L2c+PCEtLWxpbmsgVXN1YXJpbyB0byBVQzItLT48ZyBpZD0ibGlua19Vc3VhcmlvX1VDMiI+PHBhdGggZD0iTTY2LjM5LDY0OC4yMSBDNzkuMTIsNjE3LjcyIDEwMS4yNSw1NzYuMDYgMTM0LDU1MiBDMTU1LjAxLDUzNi41NyAxNzYuMDkyMSw1MjkuMDI0NCAyMDAuOTMyMSw1MjQuMTU0NCAiIGZpbGw9Im5vbmUiIGlkPSJVc3VhcmlvLXRvLVVDMiIgc3R5bGU9InN0cm9rZTojMTgxODE4O3N0cm9rZS13aWR0aDoxLjA7Ii8+PHBvbHlnb24gZmlsbD0iIzE4MTgxOCIgcG9pbnRzPSIyMDYuODIsNTIzLDE5Ny4yMTg2LDUyMC44MDYzLDIwMS45MTM0LDUyMy45NjIsMTk4Ljc1NzcsNTI4LjY1NjgsMjA2LjgyLDUyMyIgc3R5bGU9InN0cm9rZTojMTgxODE4O3N0cm9rZS13aWR0aDoxLjA7Ii8+PC9nPjwhLS1saW5rIFVzdWFyaW8gdG8gVUMzLS0+PGcgaWQ9ImxpbmtfVXN1YXJpb19VQzMiPjxwYXRoIGQ9Ik03Ni44NCw2NjEuNjggQzkxLjk4LDY0Ny41NSAxMTIuNjksNjMwLjUyIDEzNCw2MjAgQzE1OS43NCw2MDcuMjkgMTg0LjU4OTIsNjAwLjMyOTcgMjEwLjk0OTIsNTk1LjIyOTcgIiBmaWxsPSJub25lIiBpZD0iVXN1YXJpby10by1VQzMiIHN0eWxlPSJzdHJva2U6IzE4MTgxODtzdHJva2Utd2lkdGg6MS4wOyIvPjxwb2x5Z29uIGZpbGw9IiMxODE4MTgiIHBvaW50cz0iMjE2Ljg0LDU5NC4wOSwyMDcuMjQ0MSw1OTEuODcyNCwyMTEuOTMxLDU5NS4wMzk4LDIwOC43NjM3LDU5OS43MjY3LDIxNi44NCw1OTQuMDkiIHN0eWxlPSJzdHJva2U6IzE4MTgxODtzdHJva2Utd2lkdGg6MS4wOyIvPjwvZz48IS0tbGluayBVc3VhcmlvIHRvIFVDNC0tPjxnIGlkPSJsaW5rX1VzdWFyaW9fVUM0Ij48cGF0aCBkPSJNNzYuNTUsNjgyLjUzIEMxMTAuNTgsNjc3LjUyIDE2OC42MDQsNjY4Ljk2MzcgMjE1LjE0NCw2NjIuMTEzNyAiIGZpbGw9Im5vbmUiIGlkPSJVc3VhcmlvLXRvLVVDNCIgc3R5bGU9InN0cm9rZTojMTgxODE4O3N0cm9rZS13aWR0aDoxLjA7Ii8+PHBvbHlnb24gZmlsbD0iIzE4MTgxOCIgcG9pbnRzPSIyMjEuMDgsNjYxLjI0LDIxMS41OTM1LDY1OC41OTMyLDIxNi4xMzMzLDY2MS45NjgxLDIxMi43NTg0LDY2Ni41MDc5LDIyMS4wOCw2NjEuMjQiIHN0eWxlPSJzdHJva2U6IzE4MTgxODtzdHJva2Utd2lkdGg6MS4wOyIvPjwvZz48IS0tbGluayBVc3VhcmlvIHRvIFVDNS0tPjxnIGlkPSJsaW5rX1VzdWFyaW9fVUM1Ij48cGF0aCBkPSJNNzYuNTUsNjg5LjU3IEMxMTAuMDIsNjk0LjY2IDE2Ni41MDc5LDcwMy4yMjk3IDIxMi44Mjc5LDcxMC4yNTk3ICIgZmlsbD0ibm9uZSIgaWQ9IlVzdWFyaW8tdG8tVUM1IiBzdHlsZT0ic3Ryb2tlOiMxODE4MTg7c3Ryb2tlLXdpZHRoOjEuMDsiLz48cG9seWdvbiBmaWxsPSIjMTgxODE4IiBwb2ludHM9IjIxOC43Niw3MTEuMTYsMjEwLjQ2MjEsNzA1Ljg1NDgsMjEzLjgxNjYsNzEwLjQwOTcsMjA5LjI2MTcsNzEzLjc2NDIsMjE4Ljc2LDcxMS4xNiIgc3R5bGU9InN0cm9rZTojMTgxODE4O3N0cm9rZS13aWR0aDoxLjA7Ii8+PC9nPjwhLS1saW5rIFVzdWFyaW8gdG8gVUM2LS0+PGcgaWQ9ImxpbmtfVXN1YXJpb19VQzYiPjxwYXRoIGQ9Ik03Ni43MSw3MTEuMDggQzkxLjgsNzI1LjY0IDExMi41MSw3NDMuMTkgMTM0LDc1NCBDMTU5LjY1LDc2Ni45IDE4NC40Nzc0LDc3My44ODk3IDIxMC44NTc0LDc3OC45NDk3ICIgZmlsbD0ibm9uZSIgaWQ9IlVzdWFyaW8tdG8tVUM2IiBzdHlsZT0ic3Ryb2tlOiMxODE4MTg7c3Ryb2tlLXdpZHRoOjEuMDsiLz48cG9seWdvbiBmaWxsPSIjMTgxODE4IiBwb2ludHM9IjIxNi43NSw3ODAuMDgsMjA4LjY2NDYsNzc0LjQ1NjIsMjExLjgzOTUsNzc5LjEzODEsMjA3LjE1NzYsNzgyLjMxMywyMTYuNzUsNzgwLjA4IiBzdHlsZT0ic3Ryb2tlOiMxODE4MTg7c3Ryb2tlLXdpZHRoOjEuMDsiLz48L2c+PCEtLWxpbmsgVXN1YXJpbyB0byBVQzctLT48ZyBpZD0ibGlua19Vc3VhcmlvX1VDNyI+PHBhdGggZD0iTTY1Ljk1LDcyMy43OCBDNzguNTMsNzU0LjgyIDEwMC42Nyw3OTcuNTIgMTM0LDgyMiBDMTU2LjIxLDgzOC4zMiAxNzkuMjE3NCw4NDUuODk5NyAyMDUuMjM3NCw4NTAuMzg5NyAiIGZpbGw9Im5vbmUiIGlkPSJVc3VhcmlvLXRvLVVDNyIgc3R5bGU9InN0cm9rZTojMTgxODE4O3N0cm9rZS13aWR0aDoxLjA7Ii8+PHBvbHlnb24gZmlsbD0iIzE4MTgxOCIgcG9pbnRzPSIyMTEuMTUsODUxLjQxLDIwMi45NjEzLDg0NS45Mzc4LDIwNi4yMjI4LDg1MC41NTk4LDIwMS42MDA5LDg1My44MjEzLDIxMS4xNSw4NTEuNDEiIHN0eWxlPSJzdHJva2U6IzE4MTgxODtzdHJva2Utd2lkdGg6MS4wOyIvPjwvZz48IS0tbGluayBVc3VhcmlvIHRvIFVDOC0tPjxnIGlkPSJsaW5rX1VzdWFyaW9fVUM4Ij48cGF0aCBkPSJNNTcuOTYsNzIzLjUxIEM2NS45NSw3NjkuMTggODUuOTksODQ1LjY2IDEzNCw4OTAgQzE0Ny41NSw5MDIuNTEgMTU4Ljk0NDUsOTA5LjQxMDUgMTc2LjQ4NDUsOTE1LjgyMDUgIiBmaWxsPSJub25lIiBpZD0iVXN1YXJpby10by1VQzgiIHN0eWxlPSJzdHJva2U6IzE4MTgxODtzdHJva2Utd2lkdGg6MS4wOyIvPjxwb2x5Z29uIGZpbGw9IiMxODE4MTgiIHBvaW50cz0iMTgyLjEyLDkxNy44OCwxNzUuMDM5OCw5MTEuMDMzOCwxNzcuNDIzOCw5MTYuMTYzOCwxNzIuMjkzOCw5MTguNTQ3OCwxODIuMTIsOTE3Ljg4IiBzdHlsZT0ic3Ryb2tlOiMxODE4MTg7c3Ryb2tlLXdpZHRoOjEuMDsiLz48L2c+PCEtLWxpbmsgQWRtaW5pc3RyYWRvciB0byBVQzktLT48ZyBpZD0ibGlua19BZG1pbmlzdHJhZG9yX1VDOSI+PHBhdGggZD0iTTc0LjY5LDE1Mi40MSBDODguOTEsMTMxLjAyIDEwOS40MiwxMDUuNDcgMTM0LDkwIEMxNTguMTksNzQuNzggMTgyLjY3LDY3LjQwNTUgMjA5LjIxLDYyLjc1NTUgIiBmaWxsPSJub25lIiBpZD0iQWRtaW5pc3RyYWRvci10by1VQzkiIHN0eWxlPSJzdHJva2U6IzE4MTgxODtzdHJva2Utd2lkdGg6MS4wOyIvPjxwb2x5Z29uIGZpbGw9IiMxODE4MTgiIHBvaW50cz0iMjE1LjEyLDYxLjcyLDIwNS41NjQ3LDU5LjMzMzIsMjEwLjE5NSw2Mi41ODI5LDIwNi45NDU0LDY3LjIxMzIsMjE1LjEyLDYxLjcyIiBzdHlsZT0ic3Ryb2tlOiMxODE4MTg7c3Ryb2tlLXdpZHRoOjEuMDsiLz48L2c+PCEtLWxpbmsgQWRtaW5pc3RyYWRvciB0byBVQzEwLS0+PGcgaWQ9ImxpbmtfQWRtaW5pc3RyYWRvcl9VQzEwIj48cGF0aCBkPSJNOTguMSwxNjYuNjYgQzEwOS42LDE2MS4zMSAxMjIuMDgsMTU2LjAzIDEzNCwxNTIgQzE2NS41MiwxNDEuMzQgMTk2LjMyNjQsMTM0LjU0MTEgMjI0LjY1NjQsMTI5LjQwMTEgIiBmaWxsPSJub25lIiBpZD0iQWRtaW5pc3RyYWRvci10by1VQzEwIiBzdHlsZT0ic3Ryb2tlOiMxODE4MTg7c3Ryb2tlLXdpZHRoOjEuMDsiLz48cG9seWdvbiBmaWxsPSIjMTgxODE4IiBwb2ludHM9IjIzMC41NiwxMjguMzMsMjIwLjk5MDUsMTI2LjAwMDksMjI1LjY0MDMsMTI5LjIyMjYsMjIyLjQxODYsMTMzLjg3MjQsMjMwLjU2LDEyOC4zMyIgc3R5bGU9InN0cm9rZTojMTgxODE4O3N0cm9rZS13aWR0aDoxLjA7Ii8+PC9nPjwhLS1saW5rIEFkbWluaXN0cmFkb3IgdG8gVUMxMS0tPjxnIGlkPSJsaW5rX0FkbWluaXN0cmFkb3JfVUMxMSI+PHBhdGggZD0iTTk4LjA2LDE5MCBDMTI0LjM4LDE5MCAxNTIuNDksMTkwIDE4My44NSwxOTAgIiBmaWxsPSJub25lIiBpZD0iQWRtaW5pc3RyYWRvci10by1VQzExIiBzdHlsZT0ic3Ryb2tlOiMxODE4MTg7c3Ryb2tlLXdpZHRoOjEuMDsiLz48cG9seWdvbiBmaWxsPSIjMTgxODE4IiBwb2ludHM9IjE4OS44NSwxOTAsMTgwLjg1LDE4NiwxODQuODUsMTkwLDE4MC44NSwxOTQsMTg5Ljg1LDE5MCIgc3R5bGU9InN0cm9rZTojMTgxODE4O3N0cm9rZS13aWR0aDoxLjA7Ii8+PC9nPjwhLS1saW5rIEFkbWluaXN0cmFkb3IgdG8gVUMxMi0tPjxnIGlkPSJsaW5rX0FkbWluaXN0cmFkb3JfVUMxMiI+PHBhdGggZD0iTTk4LjI0LDIxMi40MiBDMTA5Ljc0LDIxNy42MyAxMjIuMTgsMjIyLjg1IDEzNCwyMjcgQzE2Mi4xNCwyMzYuODggMTg4LjQ0MzksMjQzLjg2OTcgMjE1LjExMzksMjUwLjAyOTcgIiBmaWxsPSJub25lIiBpZD0iQWRtaW5pc3RyYWRvci10by1VQzEyIiBzdHlsZT0ic3Ryb2tlOiMxODE4MTg7c3Ryb2tlLXdpZHRoOjEuMDsiLz48cG9seWdvbiBmaWxsPSIjMTgxODE4IiBwb2ludHM9IjIyMC45NiwyNTEuMzgsMjEzLjA5MTEsMjQ1LjQ1NzIsMjE2LjA4ODMsMjUwLjI1NDgsMjExLjI5MDcsMjUzLjI1MiwyMjAuOTYsMjUxLjM4IiBzdHlsZT0ic3Ryb2tlOiMxODE4MTg7c3Ryb2tlLXdpZHRoOjEuMDsiLz48L2c+PCEtLWxpbmsgQWRtaW5pc3RyYWRvciB0byBVQzEzLS0+PGcgaWQ9ImxpbmtfQWRtaW5pc3RyYWRvcl9VQzEzIj48cGF0aCBkPSJNNzIuNzIsMjI3LjU0IEM4Ni44NCwyNTEgMTA3Ljk0LDI4MC4wNSAxMzQsMjk4IEMxNTEuOTcsMzEwLjM4IDE2Ny44OTU0LDMxNy4zOTU3IDE4OC44ODU0LDMyMy40NTU3ICIgZmlsbD0ibm9uZSIgaWQ9IkFkbWluaXN0cmFkb3ItdG8tVUMxMyIgc3R5bGU9InN0cm9rZTojMTgxODE4O3N0cm9rZS13aWR0aDoxLjA7Ii8+PHBvbHlnb24gZmlsbD0iIzE4MTgxOCIgcG9pbnRzPSIxOTQuNjUsMzI1LjEyLDE4Ny4xMTI3LDMxOC43ODA1LDE4OS44NDYyLDMyMy43MzMxLDE4NC44OTM2LDMyNi40NjY2LDE5NC42NSwzMjUuMTIiIHN0eWxlPSJzdHJva2U6IzE4MTgxODtzdHJva2Utd2lkdGg6MS4wOyIvPjwvZz48IS0tU1JDPVtWUDlESmlDbTQ4TnRGaU1lLXFlYXdVeTZnUkdMSW4zRzB4WkU0MFF2amNHeEk4MHU1S1ZXT1paVzgzbkF3anJ4X2NSNlZYZ0RabTYyMUtWREt1MlE3QWYwcldXWExSMEUzaHdMWmNuSWNfZjRYZG5taWhQRVk4d0xmajQ4YXNscVdSdS0zVEc4M3pBWHoxRHU1bjFGd3I1OTd2NWpURHRsdkdJYVh5RXNvODZEMmd0S3pDUWVDZ1ZzY2s4WjY1RmJwQ3FuZUM0U2NQcjFWNkJjUkRHcGdaUW1LR2xzQXNhS1FpT2lTLVEtelNoSGFMbUs0bE9sUThCclZxY2JjZk51NjRycVB4bFNPeXFodEE4eGFSVFp5SU9vekxtRjhOVE16X2JWWkRwX2N6Y1puR1h3SFFPY3FfSE9VSHhSOE1qUlRSekVJbVJKd1VORkxrSXdQQmZZVWlScWRFYTVxcWtjTHE5YVV2dGl6UTBSOG5rcVlzNng3QlFoUm0wMF0tLT48L2c+PC9zdmc+;" vertex="1" parent="1">
            <mxGeometry x="2419" y="1102" width="420" height="983" as="geometry" />
          </mxCell>
        </UserObject>
        <mxCell id="v2Jn4lbNKc6R1VwB_rYv-203" value="Usuario" style="shape=umlLifeline;perimeter=lifelinePerimeter;whiteSpace=wrap;container=1;dropTarget=0;collapsible=0;recursiveResize=0;outlineConnect=0;portConstraint=eastwest;newEdgeStyle={&quot;edgeStyle&quot;:&quot;elbowEdgeStyle&quot;,&quot;elbow&quot;:&quot;vertical&quot;,&quot;curved&quot;:0,&quot;rounded&quot;:0};size=65;" vertex="1" parent="1">
          <mxGeometry x="20" y="2105" width="150" height="1155" as="geometry" />
        </mxCell>
        <mxCell id="v2Jn4lbNKc6R1VwB_rYv-204" value="TaskService" style="shape=umlLifeline;perimeter=lifelinePerimeter;whiteSpace=wrap;container=1;dropTarget=0;collapsible=0;recursiveResize=0;outlineConnect=0;portConstraint=eastwest;newEdgeStyle={&quot;edgeStyle&quot;:&quot;elbowEdgeStyle&quot;,&quot;elbow&quot;:&quot;vertical&quot;,&quot;curved&quot;:0,&quot;rounded&quot;:0};size=65;" vertex="1" parent="1">
          <mxGeometry x="384" y="2105" width="150" height="1155" as="geometry" />
        </mxCell>
        <mxCell id="v2Jn4lbNKc6R1VwB_rYv-205" value="TaskRepository" style="shape=umlLifeline;perimeter=lifelinePerimeter;whiteSpace=wrap;container=1;dropTarget=0;collapsible=0;recursiveResize=0;outlineConnect=0;portConstraint=eastwest;newEdgeStyle={&quot;edgeStyle&quot;:&quot;elbowEdgeStyle&quot;,&quot;elbow&quot;:&quot;vertical&quot;,&quot;curved&quot;:0,&quot;rounded&quot;:0};size=65;" vertex="1" parent="1">
          <mxGeometry x="714" y="2105" width="150" height="1155" as="geometry" />
        </mxCell>
        <mxCell id="v2Jn4lbNKc6R1VwB_rYv-206" value="TaskExecutor" style="shape=umlLifeline;perimeter=lifelinePerimeter;whiteSpace=wrap;container=1;dropTarget=0;collapsible=0;recursiveResize=0;outlineConnect=0;portConstraint=eastwest;newEdgeStyle={&quot;edgeStyle&quot;:&quot;elbowEdgeStyle&quot;,&quot;elbow&quot;:&quot;vertical&quot;,&quot;curved&quot;:0,&quot;rounded&quot;:0};size=65;" vertex="1" parent="1">
          <mxGeometry x="914" y="2105" width="150" height="1155" as="geometry" />
        </mxCell>
        <mxCell id="v2Jn4lbNKc6R1VwB_rYv-207" value="TaskEventStream" style="shape=umlLifeline;perimeter=lifelinePerimeter;whiteSpace=wrap;container=1;dropTarget=0;collapsible=0;recursiveResize=0;outlineConnect=0;portConstraint=eastwest;newEdgeStyle={&quot;edgeStyle&quot;:&quot;elbowEdgeStyle&quot;,&quot;elbow&quot;:&quot;vertical&quot;,&quot;curved&quot;:0,&quot;rounded&quot;:0};size=65;" vertex="1" parent="1">
          <mxGeometry x="1196" y="2105" width="150" height="1155" as="geometry" />
        </mxCell>
        <mxCell id="v2Jn4lbNKc6R1VwB_rYv-208" value="loop" style="shape=umlFrame;dashed=1;pointerEvents=0;dropTarget=0;strokeColor=#B3B3B3;height=20;width=40" vertex="1" parent="1">
          <mxGeometry x="84" y="2838" width="1198" height="233" as="geometry" />
        </mxCell>
        <mxCell id="v2Jn4lbNKc6R1VwB_rYv-209" value="[EjecuciÃ³n de la tarea]" style="text;strokeColor=none;fillColor=none;align=center;verticalAlign=middle;whiteSpace=wrap;" vertex="1" parent="v2Jn4lbNKc6R1VwB_rYv-208">
          <mxGeometry x="40" width="1158" height="20" as="geometry" />
        </mxCell>
        <mxCell id="v2Jn4lbNKc6R1VwB_rYv-210" value="ejecutarTarea(idTarea, domain)" style="verticalAlign=bottom;edgeStyle=elbowEdgeStyle;elbow=vertical;curved=0;rounded=0;endArrow=block;" edge="1" parent="1" source="v2Jn4lbNKc6R1VwB_rYv-203" target="v2Jn4lbNKc6R1VwB_rYv-204">
          <mxGeometry relative="1" as="geometry">
            <Array as="points">
              <mxPoint x="286" y="2208" />
            </Array>
          </mxGeometry>
        </mxCell>
        <mxCell id="v2Jn4lbNKc6R1VwB_rYv-211" value="obtenerTareaPorId(idTarea, domain)" style="verticalAlign=bottom;edgeStyle=elbowEdgeStyle;elbow=vertical;curved=0;rounded=0;endArrow=block;" edge="1" parent="1" source="v2Jn4lbNKc6R1VwB_rYv-204" target="v2Jn4lbNKc6R1VwB_rYv-205">
          <mxGeometry relative="1" as="geometry">
            <Array as="points">
              <mxPoint x="633" y="2256" />
            </Array>
          </mxGeometry>
        </mxCell>
        <mxCell id="v2Jn4lbNKc6R1VwB_rYv-212" value="tarea" style="verticalAlign=bottom;edgeStyle=elbowEdgeStyle;elbow=vertical;curved=0;rounded=0;dashed=1;dashPattern=2 3;endArrow=block;" edge="1" parent="1" source="v2Jn4lbNKc6R1VwB_rYv-205" target="v2Jn4lbNKc6R1VwB_rYv-204">
          <mxGeometry relative="1" as="geometry">
            <Array as="points">
              <mxPoint x="636" y="2302" />
            </Array>
          </mxGeometry>
        </mxCell>
        <mxCell id="v2Jn4lbNKc6R1VwB_rYv-213" value="ejecutar(tarea, eventStream)" style="verticalAlign=bottom;edgeStyle=elbowEdgeStyle;elbow=vertical;curved=0;rounded=0;endArrow=block;" edge="1" parent="1" source="v2Jn4lbNKc6R1VwB_rYv-204" target="v2Jn4lbNKc6R1VwB_rYv-206">
          <mxGeometry relative="1" as="geometry">
            <Array as="points">
              <mxPoint x="733" y="2350" />
            </Array>
          </mxGeometry>
        </mxCell>
        <mxCell id="v2Jn4lbNKc6R1VwB_rYv-214" value="suscribir(idEjecucion, domain)" style="verticalAlign=bottom;edgeStyle=elbowEdgeStyle;elbow=vertical;curved=0;rounded=0;endArrow=block;" edge="1" parent="1" source="v2Jn4lbNKc6R1VwB_rYv-206" target="v2Jn4lbNKc6R1VwB_rYv-207">
          <mxGeometry relative="1" as="geometry">
            <Array as="points">
              <mxPoint x="1139" y="2398" />
            </Array>
          </mxGeometry>
        </mxCell>
        <mxCell id="v2Jn4lbNKc6R1VwB_rYv-215" value="ejecucion" style="verticalAlign=bottom;edgeStyle=elbowEdgeStyle;elbow=vertical;curved=0;rounded=0;dashed=1;dashPattern=2 3;endArrow=block;" edge="1" parent="1" source="v2Jn4lbNKc6R1VwB_rYv-206" target="v2Jn4lbNKc6R1VwB_rYv-204">
          <mxGeometry relative="1" as="geometry">
            <Array as="points">
              <mxPoint x="736" y="2444" />
            </Array>
          </mxGeometry>
        </mxCell>
        <mxCell id="v2Jn4lbNKc6R1VwB_rYv-216" value="idEjecucion" style="verticalAlign=bottom;edgeStyle=elbowEdgeStyle;elbow=vertical;curved=0;rounded=0;dashed=1;dashPattern=2 3;endArrow=block;" edge="1" parent="1" source="v2Jn4lbNKc6R1VwB_rYv-204" target="v2Jn4lbNKc6R1VwB_rYv-203">
          <mxGeometry relative="1" as="geometry">
            <Array as="points">
              <mxPoint x="289" y="2490" />
            </Array>
          </mxGeometry>
        </mxCell>
        <mxCell id="v2Jn4lbNKc6R1VwB_rYv-217" value="suscribirseAEventosDeTarea(idEjecucion)" style="verticalAlign=bottom;edgeStyle=elbowEdgeStyle;elbow=vertical;curved=0;rounded=0;endArrow=block;" edge="1" parent="1" source="v2Jn4lbNKc6R1VwB_rYv-203" target="v2Jn4lbNKc6R1VwB_rYv-204">
          <mxGeometry relative="1" as="geometry">
            <Array as="points">
              <mxPoint x="286" y="2538" />
            </Array>
          </mxGeometry>
        </mxCell>
        <mxCell id="v2Jn4lbNKc6R1VwB_rYv-218" value="suscribir(idEjecucion)" style="verticalAlign=bottom;edgeStyle=elbowEdgeStyle;elbow=vertical;curved=0;rounded=0;endArrow=block;" edge="1" parent="1" source="v2Jn4lbNKc6R1VwB_rYv-204" target="v2Jn4lbNKc6R1VwB_rYv-207">
          <mxGeometry relative="1" as="geometry">
            <Array as="points">
              <mxPoint x="874" y="2586" />
            </Array>
          </mxGeometry>
        </mxCell>
        <mxCell id="v2Jn4lbNKc6R1VwB_rYv-219" value="flujoEventos" style="verticalAlign=bottom;edgeStyle=elbowEdgeStyle;elbow=vertical;curved=0;rounded=0;dashed=1;dashPattern=2 3;endArrow=block;" edge="1" parent="1" source="v2Jn4lbNKc6R1VwB_rYv-207" target="v2Jn4lbNKc6R1VwB_rYv-204">
          <mxGeometry relative="1" as="geometry">
            <Array as="points">
              <mxPoint x="877" y="2632" />
            </Array>
          </mxGeometry>
        </mxCell>
        <mxCell id="v2Jn4lbNKc6R1VwB_rYv-220" value="flujoEventos" style="verticalAlign=bottom;edgeStyle=elbowEdgeStyle;elbow=vertical;curved=0;rounded=0;dashed=1;dashPattern=2 3;endArrow=block;" edge="1" parent="1" source="v2Jn4lbNKc6R1VwB_rYv-204" target="v2Jn4lbNKc6R1VwB_rYv-203">
          <mxGeometry relative="1" as="geometry">
            <Array as="points">
              <mxPoint x="289" y="2678" />
            </Array>
          </mxGeometry>
        </mxCell>
        <mxCell id="v2Jn4lbNKc6R1VwB_rYv-221" value="flujoEventos" style="verticalAlign=bottom;edgeStyle=elbowEdgeStyle;elbow=vertical;curved=0;rounded=0;dashed=1;dashPattern=2 3;endArrow=block;" edge="1" parent="1" source="v2Jn4lbNKc6R1VwB_rYv-207" target="v2Jn4lbNKc6R1VwB_rYv-206">
          <mxGeometry relative="1" as="geometry">
            <Array as="points">
              <mxPoint x="1142" y="2724" />
            </Array>
          </mxGeometry>
        </mxCell>
        <mxCell id="v2Jn4lbNKc6R1VwB_rYv-222" value="publicar(eventoInicio)" style="verticalAlign=bottom;edgeStyle=elbowEdgeStyle;elbow=vertical;curved=0;rounded=0;endArrow=block;" edge="1" parent="1" source="v2Jn4lbNKc6R1VwB_rYv-206" target="v2Jn4lbNKc6R1VwB_rYv-207">
          <mxGeometry relative="1" as="geometry">
            <Array as="points">
              <mxPoint x="1139" y="2772" />
            </Array>
          </mxGeometry>
        </mxCell>
        <mxCell id="v2Jn4lbNKc6R1VwB_rYv-223" value="eventoInicio" style="verticalAlign=bottom;edgeStyle=elbowEdgeStyle;elbow=vertical;curved=0;rounded=0;dashed=1;dashPattern=2 3;endArrow=block;" edge="1" parent="1" source="v2Jn4lbNKc6R1VwB_rYv-207" target="v2Jn4lbNKc6R1VwB_rYv-203">
          <mxGeometry relative="1" as="geometry">
            <Array as="points">
              <mxPoint x="695" y="2818" />
            </Array>
          </mxGeometry>
        </mxCell>
        <mxCell id="v2Jn4lbNKc6R1VwB_rYv-224" value="publicar(eventoSalida)" style="verticalAlign=bottom;edgeStyle=elbowEdgeStyle;elbow=vertical;curved=0;rounded=0;endArrow=block;" edge="1" parent="1" source="v2Jn4lbNKc6R1VwB_rYv-206" target="v2Jn4lbNKc6R1VwB_rYv-207">
          <mxGeometry relative="1" as="geometry">
            <Array as="points">
              <mxPoint x="1139" y="2911" />
            </Array>
          </mxGeometry>
        </mxCell>
        <mxCell id="v2Jn4lbNKc6R1VwB_rYv-225" value="eventoSalida" style="verticalAlign=bottom;edgeStyle=elbowEdgeStyle;elbow=vertical;curved=0;rounded=0;dashed=1;dashPattern=2 3;endArrow=block;" edge="1" parent="1" source="v2Jn4lbNKc6R1VwB_rYv-207" target="v2Jn4lbNKc6R1VwB_rYv-203">
          <mxGeometry relative="1" as="geometry">
            <Array as="points">
              <mxPoint x="695" y="2957" />
            </Array>
          </mxGeometry>
        </mxCell>
        <mxCell id="v2Jn4lbNKc6R1VwB_rYv-226" value="publicar(eventoError)" style="verticalAlign=bottom;edgeStyle=elbowEdgeStyle;elbow=vertical;curved=0;rounded=0;endArrow=block;" edge="1" parent="1" source="v2Jn4lbNKc6R1VwB_rYv-206" target="v2Jn4lbNKc6R1VwB_rYv-207">
          <mxGeometry relative="1" as="geometry">
            <Array as="points">
              <mxPoint x="1139" y="3005" />
            </Array>
          </mxGeometry>
        </mxCell>
        <mxCell id="v2Jn4lbNKc6R1VwB_rYv-227" value="eventoError" style="verticalAlign=bottom;edgeStyle=elbowEdgeStyle;elbow=vertical;curved=0;rounded=0;dashed=1;dashPattern=2 3;endArrow=block;" edge="1" parent="1" source="v2Jn4lbNKc6R1VwB_rYv-207" target="v2Jn4lbNKc6R1VwB_rYv-203">
          <mxGeometry relative="1" as="geometry">
            <Array as="points">
              <mxPoint x="695" y="3051" />
            </Array>
          </mxGeometry>
        </mxCell>
        <mxCell id="v2Jn4lbNKc6R1VwB_rYv-228" value="publicar(eventoFinalizado)" style="verticalAlign=bottom;edgeStyle=elbowEdgeStyle;elbow=vertical;curved=0;rounded=0;endArrow=block;" edge="1" parent="1" source="v2Jn4lbNKc6R1VwB_rYv-206" target="v2Jn4lbNKc6R1VwB_rYv-207">
          <mxGeometry relative="1" as="geometry">
            <Array as="points">
              <mxPoint x="1139" y="3109" />
            </Array>
          </mxGeometry>
        </mxCell>
        <mxCell id="v2Jn4lbNKc6R1VwB_rYv-229" value="eventoFinalizado" style="verticalAlign=bottom;edgeStyle=elbowEdgeStyle;elbow=vertical;curved=0;rounded=0;dashed=1;dashPattern=2 3;endArrow=block;" edge="1" parent="1" source="v2Jn4lbNKc6R1VwB_rYv-207" target="v2Jn4lbNKc6R1VwB_rYv-203">
          <mxGeometry relative="1" as="geometry">
            <Array as="points">
              <mxPoint x="695" y="3155" />
            </Array>
          </mxGeometry>
        </mxCell>
      </root>
    </mxGraphModel>
  </diagram>
</mxfile>
